<svg xmlns="http://www.w3.org/2000/svg" xmlns:xlink="http://www.w3.org/1999/xlink" viewBox="0 0 843.06 521.12"><defs><linearGradient id="linear-gradient" x1="257.98" y1="268.28" x2="319.5" y2="268.28" gradientUnits="userSpaceOnUse"><stop offset="0" stop-color="#c9cded"/><stop offset="1" stop-color="#f8f9fe"/></linearGradient><linearGradient id="linear-gradient-2" x1="199.87" y1="244.64" x2="309.64" y2="166.94" gradientUnits="userSpaceOnUse"><stop offset="0" stop-color="#c5caf0"/><stop offset=".08" stop-color="#c9cef1"/><stop offset="1" stop-color="#f8f9fe"/></linearGradient><linearGradient id="linear-gradient-3" x1="467.98" y1="439.67" x2="562.83" y2="372.54" xlink:href="#linear-gradient-2"/><linearGradient id="linear-gradient-4" x1="158.9" y1="449.47" x2="492.16" y2="213.59" xlink:href="#linear-gradient-2"/><linearGradient id="linear-gradient-5" x1="121.88" y1="218.28" x2="305.28" y2="218.28" gradientUnits="userSpaceOnUse"><stop offset="0" stop-color="#f3f4fb"/><stop offset=".03" stop-color="#f2f3fb"/><stop offset=".57" stop-color="#e3e3fb"/><stop offset="1" stop-color="#dedefb"/></linearGradient><linearGradient id="linear-gradient-6" x1="408.6" y1="137.54" x2="453.6" y2="70.54" xlink:href="#linear-gradient-2"/><linearGradient id="linear-gradient-7" x1="614.04" y1="357.12" x2="708.89" y2="289.99" xlink:href="#linear-gradient-2"/><linearGradient id="linear-gradient-8" x1="648.08" y1="203.19" x2="689.08" y2="116.19" xlink:href="#linear-gradient-2"/><linearGradient id="linear-gradient-9" x1="304.27" y1="274.06" x2="589.6" y2="194.73" gradientUnits="userSpaceOnUse"><stop offset="0" stop-color="#f3f4fb"/><stop offset="1" stop-color="#dedefb"/></linearGradient><linearGradient id="linear-gradient-10" x1="333.31" y1="192.64" x2="553.25" y2="192.64" gradientUnits="userSpaceOnUse"><stop offset="0" stop-color="#f8f8ff"/><stop offset="1" stop-color="#f3f4fb"/></linearGradient><linearGradient id="linear-gradient-11" x1="367.33" y1="192.64" x2="519.26" y2="192.64" gradientUnits="userSpaceOnUse"><stop offset="0" stop-color="#ffa671"/><stop offset="1" stop-color="#f25771"/></linearGradient><linearGradient id="linear-gradient-12" x1="367.33" y1="173.26" x2="519.26" y2="173.26" gradientUnits="userSpaceOnUse"><stop offset="0" stop-color="#ff6671"/><stop offset="1" stop-color="#ffa671"/></linearGradient><linearGradient id="linear-gradient-13" x1="443.41" y1="237.91" x2="443.41" y2="20.98" gradientUnits="userSpaceOnUse"><stop offset="0" stop-color="#ff6671"/><stop offset=".14" stop-color="#ff6b71"/><stop offset=".32" stop-color="#ff7a71"/><stop offset=".51" stop-color="#ff9271"/><stop offset=".63" stop-color="#ffa671"/><stop offset="1" stop-color="#fff"/></linearGradient><linearGradient id="linear-gradient-14" x1="483.73" y1="191.61" x2="483.73" y2="21.87" xlink:href="#linear-gradient-13"/><linearGradient id="linear-gradient-15" x1="477.6" y1="218.39" x2="477.6" y2="25.19" xlink:href="#linear-gradient-13"/><linearGradient id="linear-gradient-16" x1="214.92" y1="-1099.82" x2="305.57" y2="-1099.82" gradientTransform="matrix(1 0 0 -1 0 -930.58)" xlink:href="#linear-gradient"/><linearGradient id="linear-gradient-17" x1="371.31" y1="235.15" x2="314.26" y2="325.91" gradientUnits="userSpaceOnUse"><stop offset="0" stop-color="#ff6671"/><stop offset=".14" stop-color="#ff6b71"/><stop offset=".32" stop-color="#ff7a71"/><stop offset=".51" stop-color="#ff9271"/><stop offset=".63" stop-color="#ffa671"/><stop offset=".69" stop-color="#fcbc99"/><stop offset=".75" stop-color="#f9d0bc"/><stop offset=".81" stop-color="#f7e0d8"/><stop offset=".87" stop-color="#f5ebec"/><stop offset=".94" stop-color="#f4f2f8"/><stop offset="1" stop-color="#f4f4fc"/></linearGradient><linearGradient id="linear-gradient-18" x1="214.92" y1="-1101.24" x2="305.57" y2="-1101.24" gradientTransform="matrix(1 0 0 -1 0 -930.58)" xlink:href="#linear-gradient"/><linearGradient id="linear-gradient-19" x1="208.97" y1="-1119.03" x2="281.64" y2="-1119.03" gradientTransform="matrix(1 0 0 -1 0 -930.58)" xlink:href="#linear-gradient"/><linearGradient id="linear-gradient-20" x1="234.69" y1="201.17" x2="301.37" y2="201.17" xlink:href="#linear-gradient"/><linearGradient id="linear-gradient-21" x1="277.56" y1="99.49" x2="235.57" y2="169.98" xlink:href="#linear-gradient-5"/><linearGradient id="linear-gradient-22" x1="276.11" y1="100.98" x2="234.12" y2="171.48" gradientUnits="userSpaceOnUse"><stop offset="0" stop-color="#4654dc"/><stop offset=".15" stop-color="#3d4bcd"/><stop offset=".47" stop-color="#2f3db5"/><stop offset=".76" stop-color="#2735a6"/><stop offset="1" stop-color="#2432a1"/></linearGradient><linearGradient id="linear-gradient-23" x1="186.01" y1="-1356.56" x2="164.85" y2="-1321.03" gradientTransform="matrix(1 0 0 -1 0 -1203.45)" gradientUnits="userSpaceOnUse"><stop offset="0" stop-color="#4654dc"/><stop offset=".15" stop-color="#3d4bcd"/><stop offset=".47" stop-color="#2f3db5"/><stop offset=".76" stop-color="#2735a6"/><stop offset="1" stop-color="#2432a1"/></linearGradient><linearGradient id="linear-gradient-24" x1="147.65" y1="186.3" x2="227.23" y2="186.3" xlink:href="#linear-gradient"/><linearGradient id="linear-gradient-25" x1="147.65" y1="174.38" x2="227.36" y2="174.38" xlink:href="#linear-gradient-9"/><linearGradient id="linear-gradient-26" x1="201.23" y1="150.55" x2="123.85" y2="193.8" gradientUnits="userSpaceOnUse"><stop offset="0" stop-color="#c9cded"/><stop offset=".29" stop-color="#cdd1ee"/><stop offset=".58" stop-color="#d9dcf3"/><stop offset=".88" stop-color="#edeffa"/><stop offset="1" stop-color="#f8f9fe"/></linearGradient><linearGradient id="linear-gradient-27" x1="217.94" y1="201.21" x2="219.3" y2="158.11" gradientUnits="userSpaceOnUse"><stop offset="0" stop-color="#929dff"/><stop offset=".16" stop-color="#828ffd"/><stop offset=".48" stop-color="#6a79fb"/><stop offset=".76" stop-color="#5b6cfa"/><stop offset="1" stop-color="#5667f9"/></linearGradient><linearGradient id="linear-gradient-28" x1="217.33" y1="138.25" x2="218.13" y2="132.29" gradientUnits="userSpaceOnUse"><stop offset="0" stop-color="#ff6671"/><stop offset=".23" stop-color="#ff6b71"/><stop offset=".51" stop-color="#ff7a71"/><stop offset=".81" stop-color="#ff9271"/><stop offset="1" stop-color="#ffa671"/></linearGradient><linearGradient id="linear-gradient-29" x1="215.07" y1="132.31" x2="221.22" y2="132.31" xlink:href="#linear-gradient-28"/><linearGradient id="linear-gradient-30" x1="353.98" y1="282.61" x2="370.34" y2="271.03" gradientUnits="userSpaceOnUse"><stop offset="0" stop-color="#161b25"/><stop offset=".61" stop-color="#162877"/><stop offset="1" stop-color="#162fa6"/></linearGradient><linearGradient id="linear-gradient-31" x1="343.65" y1="273.65" x2="367.52" y2="273.65" xlink:href="#linear-gradient-9"/><linearGradient id="linear-gradient-32" x1="296.22" y1="315.6" x2="312.58" y2="304.02" xlink:href="#linear-gradient-30"/><linearGradient id="linear-gradient-33" x1="285.89" y1="306.64" x2="309.75" y2="306.64" xlink:href="#linear-gradient-9"/><linearGradient id="linear-gradient-34" x1="217.53" y1="362.93" x2="233.89" y2="351.34" xlink:href="#linear-gradient-30"/><linearGradient id="linear-gradient-35" x1="207.2" y1="353.96" x2="231.07" y2="353.96" xlink:href="#linear-gradient-9"/><linearGradient id="linear-gradient-36" x1="174.57" y1="390.47" x2="190.94" y2="378.89" xlink:href="#linear-gradient-30"/><linearGradient id="linear-gradient-37" x1="164.24" y1="381.5" x2="188.11" y2="381.5" xlink:href="#linear-gradient-9"/><linearGradient id="linear-gradient-38" x1="190.18" y1="304.06" x2="253.3" y2="304.06" xlink:href="#linear-gradient"/><linearGradient id="linear-gradient-39" x1="198.09" y1="323.57" x2="195.76" y2="281.24" xlink:href="#linear-gradient-27"/><linearGradient id="linear-gradient-40" x1="187.77" y1="266.67" x2="204.1" y2="266.67" xlink:href="#linear-gradient-28"/><linearGradient id="linear-gradient-41" x1="201.16" y1="267.31" x2="205.72" y2="267.31" xlink:href="#linear-gradient-28"/><linearGradient id="linear-gradient-42" x1="185.49" y1="268.53" x2="193.9" y2="268.53" xlink:href="#linear-gradient-28"/><linearGradient id="linear-gradient-43" x1="194.16" y1="255.83" x2="199.72" y2="255.83" xlink:href="#linear-gradient-5"/><linearGradient id="linear-gradient-44" x1="191.51" y1="274.07" x2="215.37" y2="274.07" xlink:href="#linear-gradient-9"/><linearGradient id="linear-gradient-45" x1="160.11" y1="182.61" x2="185.35" y2="182.61" xlink:href="#linear-gradient-28"/><linearGradient id="linear-gradient-46" x1="170.12" y1="180.57" x2="195.36" y2="180.57" xlink:href="#linear-gradient-23"/><linearGradient id="linear-gradient-47" x1="189.56" y1="164.95" x2="204.79" y2="164.95" xlink:href="#linear-gradient-27"/><linearGradient id="linear-gradient-48" x1="1692.83" y1="169.69" x2="1707.06" y2="169.69" gradientTransform="matrix(-1 0 0 1 1880.87 0)" xlink:href="#linear-gradient-27"/><linearGradient id="linear-gradient-49" x1="261.38" y1="116.56" x2="267.04" y2="116.56" xlink:href="#linear-gradient-28"/><linearGradient id="linear-gradient-50" x1="239.82" y1="177.85" x2="241.32" y2="219.51" xlink:href="#linear-gradient-28"/><linearGradient id="linear-gradient-51" x1="226.22" y1="164.06" x2="256.43" y2="164.06" xlink:href="#linear-gradient-27"/><linearGradient id="linear-gradient-52" x1="247.87" y1="231.85" x2="259.25" y2="231.85" xlink:href="#linear-gradient-28"/><linearGradient id="linear-gradient-53" x1="611.84" y1="-1079.51" x2="575.48" y2="-1018.48" gradientTransform="matrix(1 0 0 -1 0 -793.92)" xlink:href="#linear-gradient-22"/><linearGradient id="linear-gradient-54" x1="445.77" y1="-1146.96" x2="415.21" y2="-1095.68" gradientTransform="matrix(1 0 0 -1 0 -793.92)" xlink:href="#linear-gradient-22"/><linearGradient id="linear-gradient-55" x1="570.42" y1="262.07" x2="589.86" y2="262.07" xlink:href="#linear-gradient-27"/><linearGradient id="linear-gradient-56" x1="570.42" y1="288.3" x2="589.86" y2="288.3" xlink:href="#linear-gradient-27"/><linearGradient id="linear-gradient-57" x1="596.04" y1="220.79" x2="615.48" y2="220.79" xlink:href="#linear-gradient-27"/><linearGradient id="linear-gradient-58" x1="785.45" y1="481.02" x2="845.41" y2="481.02" gradientTransform="matrix(1.11 .11 -.11 .89 -215.77 -215.77)" xlink:href="#linear-gradient-2"/><linearGradient id="linear-gradient-59" x1="183.63" y1="145.95" x2="187.07" y2="145.95" xlink:href="#linear-gradient-28"/><linearGradient id="linear-gradient-60" x1="458.08" y1="567.39" x2="512.33" y2="567.39" gradientTransform="matrix(1.07 .14 -.15 .91 -125.77 -179.5)" xlink:href="#linear-gradient"/><linearGradient id="linear-gradient-61" x1="272.9" y1="367.94" x2="295.33" y2="367.94" xlink:href="#linear-gradient-27"/><linearGradient id="linear-gradient-62" x1="277.6" y1="343.1" x2="290.11" y2="343.1" xlink:href="#linear-gradient-28"/><linearGradient id="linear-gradient-63" x1="285.7" y1="349.72" x2="291.87" y2="349.72" xlink:href="#linear-gradient-28"/><linearGradient id="linear-gradient-64" x1="269.18" y1="366.72" x2="278.1" y2="366.72" xlink:href="#linear-gradient-27"/><linearGradient id="linear-gradient-65" x1="610.03" y1="263.91" x2="618.06" y2="263.91" xlink:href="#linear-gradient-22"/><linearGradient id="linear-gradient-66" x1="668.04" y1="212.44" x2="642.51" y2="255.3" xlink:href="#linear-gradient-22"/><linearGradient id="linear-gradient-67" x1="642.29" y1="222.12" x2="648.27" y2="222.12" xlink:href="#linear-gradient-27"/><linearGradient id="linear-gradient-68" x1="829.34" y1="431.05" x2="883.25" y2="431.05" gradientTransform="matrix(1.1 .08 -.13 .9 -202.96 -157.41)" xlink:href="#linear-gradient-2"/><linearGradient id="linear-gradient-69" x1="662.13" y1="308.61" x2="728.81" y2="308.61" xlink:href="#linear-gradient-2"/><linearGradient id="linear-gradient-70" x1="713.08" y1="249.31" x2="692.08" y2="284.56" xlink:href="#linear-gradient-22"/><linearGradient id="linear-gradient-71" x1="703.81" y1="274.02" x2="715.05" y2="274.02" xlink:href="#linear-gradient-28"/><linearGradient id="linear-gradient-72" x1="647.75" y1="268.58" x2="663.54" y2="268.58" xlink:href="#linear-gradient-27"/><linearGradient id="linear-gradient-73" x1="646.31" y1="261.09" x2="651.22" y2="261.09" xlink:href="#linear-gradient-27"/><linearGradient id="linear-gradient-74" x1="108.72" y1="318.92" x2="174.85" y2="318.92" xlink:href="#linear-gradient"/><linearGradient id="linear-gradient-75" x1="106.8" y1="316.03" x2="123.62" y2="316.03" xlink:href="#linear-gradient-28"/><linearGradient id="linear-gradient-76" x1="114.83" y1="272.98" x2="120.3" y2="272.98" xlink:href="#linear-gradient-5"/><linearGradient id="linear-gradient-77" x1="112.87" y1="283.68" x2="122.68" y2="283.68" gradientTransform="rotate(-11.59 117.79 283.722)" xlink:href="#linear-gradient-27"/><linearGradient id="linear-gradient-78" x1="105.46" y1="271.75" x2="118.61" y2="271.75" xlink:href="#linear-gradient-5"/><linearGradient id="linear-gradient-79" x1="103.67" y1="264.39" x2="117.94" y2="264.39" xlink:href="#linear-gradient-5"/><linearGradient id="linear-gradient-80" x1="102.02" y1="278.85" x2="107.01" y2="278.85" xlink:href="#linear-gradient-5"/><linearGradient id="linear-gradient-81" x1="465.56" y1="386.71" x2="532.23" y2="386.71" gradientTransform="translate(-8.47)" xlink:href="#linear-gradient"/><linearGradient id="linear-gradient-82" x1="2541.73" y1="360.59" x2="2543.23" y2="402.25" gradientTransform="matrix(-1 0 0 1 3008.19 0)" xlink:href="#linear-gradient-28"/><linearGradient id="linear-gradient-83" x1="472.95" y1="332.41" x2="456.95" y2="372.91" xlink:href="#linear-gradient-9"/><style>.cls-1{fill:#f4f4fc}.cls-12,.cls-34,.cls-4,.cls-66,.cls-88,.cls-9{fill:none;stroke-miterlimit:10}.cls-4,.cls-88,.cls-9{stroke:#ff6a73}.cls-4,.cls-66,.cls-9{stroke-linecap:round}.cls-4,.cls-9{stroke-width:2px}.cls-9{stroke-dasharray:6 8}.cls-10{fill:#7580c7}.cls-12,.cls-34,.cls-66{stroke:#fff}.cls-14{fill:#dcddfc}.cls-34,.cls-66,.cls-88{stroke-width:.5px}.cls-36{fill:#fff}.cls-40{fill:#253655}.cls-42{fill:#ffd1d5}.cls-48{fill:#ffb06c}.cls-70{fill:#fffdfd}.cls-78{fill:#ca4f62}.cls-95{fill:#ff6a73}</style></defs><g id="Layer_2" data-name="Layer 2"><g id="Layer_1-2" data-name="Layer 1"><path class="cls-1" d="M3.56 284l74.65-43a26.82 26.82 0 0126.79 0l75 43.42a7.1 7.1 0 01.05 12.27l-74.26 43.68a26.82 26.82 0 01-27.19 0l-75-44.07a7.1 7.1 0 01-.04-12.3z"/><path d="M314.66 250c-3-.08-4.56.12-6 .93-3.4-1-6.75.69-8.62 2.35-1.26 1.12-1.6 2.39-3.79 3.31h.82c-.68.26-2.9 1.13-5.09 2l-1.5-.47-8.62 3.46 5.9 1.84c-3.17 1.53-17.36 9.71-17.46 9.73a15.83 15.83 0 003.39.75l-.65.61-12.73 9.24-.21.16-.22.08a12 12 0 001 1.81c.15.25.29.5.43.75.34-.66.49-1.82.7-2.26a.48.48 0 01.09-.13c.36-.38 14.34-9.11 14.34-9.11l.84-.57 1.47.22-13.13 7.3-.95.52c-.6.34-2.64 2.7-.52 3.19.79.19 1.9-2.46 2.39-2.82l.12-.07c1.26-.7 11.45-5.65 15.47-7.59 1.76.24 3 .4 3.1.38a148.15 148.15 0 0013.8-8.94v.07l8.09-4.61 2.32-1.73 1.86-.89a2.27 2.27 0 00.9-1.17l.06-.05c.58-.3 1.87-.52 1.89-.93 0-.25-1.82-.69-3.41-1v-.05l-1.09-.24a3.7 3.7 0 01.4-.34 6.69 6.69 0 003.07 0l3.49-2.16a4.11 4.11 0 002.75-1.25c.97-1.15-2.48-2.25-4.7-2.32zM296 259.87l-1.69-.53 5.82-2.24zm10.46-4.28h-.22c-1-.16-4.38-.1-5.29-.17h-.07a22.51 22.51 0 012.14-1.34 16.36 16.36 0 013.23-1c-.23.54.05.9.53 1.16a1.76 1.76 0 001 .84 12.63 12.63 0 01-1.31.51z" fill="url(#linear-gradient)"/><path fill="url(#linear-gradient-2)" d="M214.81 272.93h43.52l118.23-69.27-134-62.25-91.94 54.01 64.19 77.51z"/><path class="cls-4" d="M202.3 205.76h3"/><path stroke-dasharray="5.95 7.93" stroke-width="2" stroke-linecap="round" stroke="#ff6a73" fill="none" stroke-miterlimit="10" d="M213.23 205.76h32.58l112.23-65.74"/><path class="cls-4" d="M361.46 138.01l2.59-1.51 2.49 1.67"/><path stroke-dasharray="6.73 8.97" stroke-width="2" stroke-linecap="round" stroke="#ff6a73" fill="none" stroke-miterlimit="10" d="M373.98 143.18l35.37 23.77"/><path class="cls-4" d="M413.07 169.46l2.49 1.67"/><path d="M487.6 466.37h37.51l92.58-54.24a6.4 6.4 0 000-11l-98.42-58.56a15.72 15.72 0 00-16.42.21l-80.15 50.49z" fill="url(#linear-gradient-3)"/><path d="M618.48 225.36a4.74 4.74 0 00.1-8.09l-100.29-63.05a13 13 0 00-13.53-.2C450.92 185.7 97.27 392.51 87.23 399L156 455.53h43.51l260.4-147.75H480z" fill="url(#linear-gradient-4)"/><path class="cls-9" d="M521.73 227.2l92.06-56.1"/><path class="cls-10" d="M121.88 209.87L200 170a26.84 26.84 0 0126.79 0l78.47 38.69v8.87c0 3.07-.47 6.37-3.47 8.13l-74.27 43.68a26.82 26.82 0 01-27.19 0l-75-44.07c-2.87-1.68-3.44-4.11-3.44-7.6z"/><path d="M121.88 208.37L200 168.52a26.84 26.84 0 0126.79 0l78.47 38.69v8.87c0 3.07-.47 6.37-3.47 8.13l-74.27 43.68a26.82 26.82 0 01-27.19 0l-75-44.07c-2.87-1.68-3.44-4.11-3.44-7.6z" fill="url(#linear-gradient-5)"/><path class="cls-1" d="M125.38 201.28L200 158.22a26.87 26.87 0 0126.79 0l74.94 43.43a7.1 7.1 0 01.06 12.27l-74.27 43.68a26.87 26.87 0 01-27.19 0l-75-44.08a7.1 7.1 0 01.05-12.24z"/><path class="cls-12" d="M125.38 201.28L200 158.22a26.87 26.87 0 0126.79 0l74.94 43.43a7.1 7.1 0 01.06 12.27l-74.27 43.68a26.87 26.87 0 01-27.19 0l-75-44.08a7.1 7.1 0 01.05-12.24z"/><path class="cls-10" d="M392.71 403.26l78.15-39.84a26.82 26.82 0 0126.78 0l78.47 38.69V411c0 3.06-.47 6.36-3.47 8.13l-74.26 43.68a26.84 26.84 0 01-27.19 0l-75-44.07c-2.87-1.69-3.45-4.11-3.45-7.61z"/><path class="cls-12" d="M396.21 394.68l74.65-43.06a26.82 26.82 0 0126.78 0l74.94 43.42a7.1 7.1 0 01.06 12.27L498.38 451a26.82 26.82 0 01-27.19 0l-75-44.07a7.09 7.09 0 01.02-12.25z"/><path d="M414.87 137.52h24l59.2-34.68a4.09 4.09 0 000-7l-62.92-37.49a10 10 0 00-10.5.14l-51.28 32.29z" fill="url(#linear-gradient-6)"/><path class="cls-10" d="M354.19 97.17l50-25.48a17.15 17.15 0 0117.13 0l50.17 24.74v5.66c0 2-.3 4.08-2.22 5.21l-47.48 27.92a17.16 17.16 0 01-17.39 0l-48-28.18c-1.84-1.08-2.21-2.63-2.21-4.86z"/><path class="cls-14" d="M354.19 96.21l50-25.48a17.18 17.18 0 0117.13 0l50.17 24.74v5.67c0 2-.3 4.07-2.22 5.2l-47.48 27.93a17.18 17.18 0 01-17.39 0l-48-28.18c-1.84-1.08-2.21-2.63-2.21-4.86z"/><path class="cls-1" d="M356.43 91.68l47.73-27.53a17.18 17.18 0 0117.13 0l47.92 27.77a4.54 4.54 0 010 7.84l-47.45 27.94a17.16 17.16 0 01-17.39 0l-48-28.18a4.54 4.54 0 01.06-7.84z"/><path class="cls-12" d="M356.43 91.68l47.73-27.53a17.18 17.18 0 0117.13 0l47.92 27.77a4.54 4.54 0 010 7.84l-47.45 27.94a17.16 17.16 0 01-17.39 0l-48-28.18a4.54 4.54 0 01.06-7.84z"/><path d="M633.66 383.82h37.51l92.58-54.24a6.4 6.4 0 000-11L665.37 260a15.72 15.72 0 00-16.42.21l-80.19 50.51z" fill="url(#linear-gradient-7)"/><path class="cls-10" d="M538.77 320.71l78.14-39.85a26.89 26.89 0 0126.79 0l78.47 38.7v8.86c0 3.07-.47 6.37-3.47 8.14l-74.27 43.68a26.87 26.87 0 01-27.19 0l-75-44.08c-2.86-1.68-3.44-4.1-3.44-7.6z"/><path class="cls-14" d="M538.77 319.21l78.14-39.85a26.89 26.89 0 0126.79 0l78.47 38.7v8.86c0 3.07-.47 6.37-3.47 8.14l-74.27 43.68a26.87 26.87 0 01-27.19 0l-75-44.08c-2.86-1.68-3.44-4.1-3.44-7.6z"/><path class="cls-1" d="M542.27 312.13l74.64-43.06a26.84 26.84 0 0126.79 0l74.94 43.42a7.1 7.1 0 01.06 12.27l-74.27 43.68a26.82 26.82 0 01-27.19 0l-75-44.07a7.1 7.1 0 01.03-12.24z"/><path class="cls-12" d="M542.27 312.13l74.64-43.06a26.84 26.84 0 0126.79 0l74.94 43.42a7.1 7.1 0 01.06 12.27l-74.27 43.68a26.82 26.82 0 01-27.19 0l-75-44.07a7.1 7.1 0 01.03-12.24z"/><path d="M652.72 188.79h25.06l61.86-36.23a4.28 4.28 0 000-7.37l-65.75-39.12a10.51 10.51 0 00-11 .13L609.35 140z" fill="url(#linear-gradient-8)"/><path class="cls-10" d="M589.32 146.63L641.53 120a17.94 17.94 0 0117.9 0l52.43 25.85v5.93c0 2-.32 4.25-2.32 5.43l-49.62 29.18a17.94 17.94 0 01-18.17 0L591.62 157c-1.92-1.12-2.3-2.74-2.3-5.08z"/><path class="cls-14" d="M589.32 145.63L641.53 119a17.94 17.94 0 0117.9 0l52.43 25.85v5.92c0 2.05-.32 4.26-2.32 5.44l-49.62 29.18a17.94 17.94 0 01-18.17 0L591.62 156c-1.92-1.13-2.3-2.75-2.3-5.08z"/><path class="cls-1" d="M591.66 140.89l49.87-28.77a17.94 17.94 0 0117.9 0l50.07 29a4.75 4.75 0 010 8.2l-49.62 29.18a17.94 17.94 0 01-18.17 0l-50.09-29.4a4.75 4.75 0 01.04-8.21z"/><path class="cls-12" d="M591.66 140.89l49.87-28.77a17.94 17.94 0 0117.9 0l50.07 29a4.75 4.75 0 010 8.2l-49.62 29.18a17.94 17.94 0 01-18.17 0l-50.09-29.4a4.75 4.75 0 01.04-8.21z"/><path d="M722.35 238.49l49.87-28.77a17.94 17.94 0 0117.89 0l50.08 29a4.74 4.74 0 010 8.2l-49.61 29.18a17.94 17.94 0 01-18.17 0l-50.1-29.4a4.75 4.75 0 01.04-8.21zM522.44 107.82l38.36-22.13a13.79 13.79 0 0113.77 0L613.09 108a3.64 3.64 0 010 6.3L575 136.77a13.78 13.78 0 01-14 0l-38.56-22.65a3.65 3.65 0 010-6.3zM300.56 471l61.71-35.6a22.19 22.19 0 0122.14 0l61.95 35.89a5.88 5.88 0 01.05 10.15L385 517.55a22.17 22.17 0 01-22.48 0l-62-36.43a5.87 5.87 0 01.04-10.12z" stroke="#dcddfc" stroke-dasharray="6 8" stroke-linecap="round" fill="none" stroke-miterlimit="10"/><path class="cls-4" d="M535.38 251.59l2.49 1.68"/><path stroke-dasharray="6.35 8.46" stroke-width="2" stroke-linecap="round" stroke="#ff6a73" fill="none" stroke-miterlimit="10" d="M544.89 257.99l33.36 22.43"/><path class="cls-4" d="M581.76 282.78l2.49 1.67"/><path class="cls-10" d="M343.37 197.11l90.71-13a26.82 26.82 0 0126.78 0l82.36 6.63s10 46.76 10 48.9c0 3.07-.46 6.37-3.47 8.13l-96.83 56.83a26.84 26.84 0 01-27.19 0l-88.92-52.05c-2.87-1.68-2.44-4.11-2.44-7.6 0-1.79 9-47.84 9-47.84z"/><path class="cls-10" d="M86.44 408L418 219.88a20.51 20.51 0 0120.45 0l59.93 29.55v6.78c0 2.34-.36 4.86-2.65 6.21l-328.58 191a20.49 20.49 0 01-20.76 0L89.08 419.8c-2.19-1.28-2.64-3.14-2.64-5.81z"/><path class="cls-14" d="M86.44 396.82L418 218.73a20.49 20.49 0 0120.45 0l59.93 29.55v6.77c0 2.34-.36 4.86-2.65 6.21l-328.58 191a20.47 20.47 0 01-20.76 0l-57.3-33.65c-2.19-1.29-2.64-3.14-2.64-5.81z"/><path class="cls-1" d="M89.12 391.41L418 200.86a20.49 20.49 0 0120.45 0L495.68 234a5.42 5.42 0 010 9.37l-328.58 191a20.49 20.49 0 01-20.76 0l-57.3-33.65a5.42 5.42 0 01.08-9.31z"/><path class="cls-12" d="M89.12 391.41L418 200.86a20.49 20.49 0 0120.45 0L495.68 234a5.42 5.42 0 010 9.37l-328.58 191a20.49 20.49 0 01-20.76 0l-57.3-33.65a5.42 5.42 0 01.08-9.31z"/><path class="cls-12" d="M336.87 188.52l97.21-56.2a26.82 26.82 0 0126.78 0l88.84 51.4a7.1 7.1 0 010 12.27l-96.83 56.82a26.84 26.84 0 01-27.19 0l-88.92-52a7.1 7.1 0 01.11-12.29z"/><path d="M460.86 182.67a26.82 26.82 0 00-26.78 0l-100.71 12v54.75l9.23-5.42v-8.53a3.19 3.19 0 014.83-2.74l64.33 38.56a12.7 12.7 0 016.17 10.87v16.5l7.77 4.55a26.84 26.84 0 0027.19 0l96.83-56.83c3-1.76 3.47-5.06 3.47-8.13V189.3z" fill="url(#linear-gradient-9)"/><path d="M336.87 188.52l97.21-56.2a26.82 26.82 0 0126.78 0l88.84 51.4a7.1 7.1 0 010 12.27l-96.83 56.82a26.84 26.84 0 01-27.19 0l-88.92-52a7.1 7.1 0 01.11-12.29z" fill="url(#linear-gradient-10)"/><path class="cls-12" d="M336.87 188.52l97.21-56.2a26.82 26.82 0 0126.78 0l88.84 51.4a7.1 7.1 0 010 12.27l-96.83 56.82a26.84 26.84 0 01-27.19 0l-88.92-52a7.1 7.1 0 01.11-12.29z"/><path d="M439.31 236.54a6.91 6.91 0 01-3.46-.94L368 195.87a1.29 1.29 0 010-2.23l76.11-44a6.87 6.87 0 016.78 0l67.74 39.2a1.29 1.29 0 010 2.23l-75.83 44.51a6.87 6.87 0 01-3.49.96z" fill="url(#linear-gradient-11)"/><path d="M518.61 188.86l-67.74-39.2a6.87 6.87 0 00-6.78 0l-76.11 44a1.29 1.29 0 000 2.23l3.25 1.9 72.87-42.13a6.8 6.8 0 016.78 0l64.5 37.34 3.24-1.9a1.29 1.29 0 00-.01-2.24z" fill="url(#linear-gradient-12)"/><path d="M519.48 25.08H367.33v170.39l68.52 40a6.83 6.83 0 006.95 0l76.68-45z" opacity=".55" fill="url(#linear-gradient-13)"/><path fill="url(#linear-gradient-14)" opacity=".25" d="M447.98 148.41l71.5 42.06V25.08h-71.5v123.33z"/><path d="M519.48 190.47l-78.32 46.19a3.6 3.6 0 01-5.43-3.1V25.44h83.75z" fill="url(#linear-gradient-15)" opacity=".25"/><path d="M290.4 169.42l-.06-.07c.23-.1.47-.2.73-.29z" fill="url(#linear-gradient-16)"/><path d="M417.93 289.43s.84-10.71-1.87-13.86-2.83-4.05-23.46-15.78c-24.07-13.68-44.82-26.87-44.82-26.87s-3.52-2.57-5.2 2v9l-92 54.67 72.57 44.49z" opacity=".51" fill="url(#linear-gradient-17)"/><path d="M288.36 170.47h.06l-.7.38z" fill="url(#linear-gradient-18)"/><path d="M280.89 183.8l-4.44-.48a1.94 1.94 0 00-1.25.21l-3 2.52.2-.4-7.39.11s5.08-5.15 5.38-6.1c.24-.19.39-.33.41-.41s-.39-.57-1.18-1l-.4-.48-.59.07h-.05l.68-.21a7.1 7.1 0 003.39.29l5.43-2.9c-.07.19 3.64-1.46-2.05-2.86a16.75 16.75 0 00-4.56-.27c-4.14.52-5.52 3.18-4.84 3.92a1 1 0 01.18-.14c-.19.37 0 .71.34 1l-.71.18-.21-.32h-2v.06c-2.43-.46-6.94-.77-6.94-.77l-.49.23c-3.14.62-15.17 3.85-16.93 5.76.06.05-1.83 2.68-2.53 4.25-1.21.56-2.28 1.09-2.94 1.47-.08 0 .22.15.78.3-3 1.78-7.28 4.33-11.61 6.44a115.71 115.71 0 00-11.22 6.27 3.3 3.3 0 01-.18.32 11.41 11.41 0 01-1.83 2.18l.25.13h.19c.37 0 15.75-6.13 18.4-7.31 3-1.37 13-6.16 14-5.9s-13.13 8.86-10.37 7.24c.4-.24-6.27 3.8-9.48 5.73a2.33 2.33 0 01.68 1.62c0 .17 0 .33-.05.5a2.16 2.16 0 011-.32 3.18 3.18 0 01-.16-.32l.87.13s14.88-7.16 16.53-8.05c1.05-.56 6.67-3.72 10.58-5.93a2.53 2.53 0 00.95-.09 16 16 0 002.36-1.77l.57-.32h-.14a24.1 24.1 0 013.1-2.16l1.6-.93c-.39.71-.63 1.43-.35 1.83.7 1 10.67.33 10.67.33l.11-.22a2.2 2.2 0 00.42.09l5.32.52a1.86 1.86 0 001.27-.25l2.94-3.25c.19-.24-.12-.48-.71-.54zm-36.48-1l-.87.42q.41-.47.84-.93a5.71 5.71 0 012.18-.66z" fill="url(#linear-gradient-19)"/><path d="M294.05 189.8l-.31.14c.28-.23.43-.38.39-.43-.35-.45-1.8-1-3.67-1.47l.87-.62h2.08a12.05 12.05 0 004.95-1.6 10.09 10.09 0 001.58-.84c2-1.31 2.31-2.82-1.83-3.2a17.07 17.07 0 00-9.3 1.83c-.86.52-1.29 1.08-2.13 1.58-.67.4-1.74.76-1.14 1.13a8.49 8.49 0 002.92.89l-.5.28c-3.45-.71-7.3-1.17-8.71-.8a7.5 7.5 0 00-.88.33c-1.51.33-12.81 2.83-15.56 4.15-2.13 1 0 2.4 1.37 3.09-3.06 1.67-5.67 3.18-6.74 4-.2.14.43.38 1.56.67l-10.31 6.25c-1.48.89-11 6.25-13.26 8.31-.11.1.08.21.4.31l-1.14.72h.12a10.34 10.34 0 005.31.12c.67-.21-.83-.42-2.23-.62a5.34 5.34 0 00.6 0c.31 0 12.48-6.55 11.95-6.25-2.84 1.57 12.42-6.62 13.45-6.5s-19.49 18.58-19.49 18.58.59-.23.79-.13l-1.08.53c.06 0-.3.43-.28.44.56.2 1.22-.18 3.28-.84.77-.24 24.35-16.89 26.66-18.32a10.65 10.65 0 002.62.2 16.71 16.71 0 011.79-1.54 13 13 0 001.52-.22l.76-.18.2.23s13-3.28 14.16-4.21.55-5.32-.77-6.01zm-26.46 1.65l3-.65-3.29 1.72zm13.47 6.62c2.07-1.4 4.44-2.89 6.6-4.23l.23 2z" fill="url(#linear-gradient-20)"/><path d="M222.51 167.43l64.89 37.88a2.6 2.6 0 003.91-2.24v-93.43a5.49 5.49 0 00-2.76-4.77l-64.87-37.31a2.61 2.61 0 00-3.9 2.26v92.86a5.49 5.49 0 002.73 4.75z" fill="url(#linear-gradient-21)"/><path d="M221.06 168.93L286 206.81a2.6 2.6 0 003.91-2.25v-93.42a5.49 5.49 0 00-2.76-4.77l-64.92-37.31a2.6 2.6 0 00-3.9 2.25v92.87a5.51 5.51 0 002.73 4.75z" fill="url(#linear-gradient-22)"/><path d="M151.2 123.08l46.13-27.23a2.6 2.6 0 013.91 2.25v43.38a5.49 5.49 0 01-2.76 4.77l-46.12 26.66a2.6 2.6 0 01-3.89-2.26v-42.82a5.51 5.51 0 012.73-4.75z" fill="url(#linear-gradient-23)"/><path class="cls-34" d="M155.38 128.15l17-10a1 1 0 011.44.83v16a2 2 0 01-1 1.75l-17 9.82a1 1 0 01-1.44-.83V129.9a2 2 0 011-1.75z"/><path d="M173.81 121.76l2.65-1.57a1 1 0 011.44.83v16a2 2 0 01-1 1.76l-17 9.82a1 1 0 01-1.43-.83V145" opacity=".27" stroke-width=".5" stroke="#fff" fill="none" stroke-miterlimit="10"/><path class="cls-34" d="M157.08 130.06l7.16-4.23a.41.41 0 01.61.35v6.73a.86.86 0 01-.43.74l-7.16 4.14a.4.4 0 01-.6-.35v-6.64a.85.85 0 01.42-.74zM183 112.21l4.56-2.69a.26.26 0 01.39.22V114a.55.55 0 01-.27.47l-4.57 2.64a.26.26 0 01-.38-.23v-4.23a.55.55 0 01.27-.44zm0 8.17l4.56-2.7a.26.26 0 01.39.23v4.29a.55.55 0 01-.27.47l-4.57 2.64a.25.25 0 01-.38-.22v-4.24a.53.53 0 01.27-.47zm0 8.16l4.56-2.69a.26.26 0 01.39.22v4.29a.52.52 0 01-.27.47l-4.57 2.64a.25.25 0 01-.38-.22V129a.55.55 0 01.27-.46zm0 8.16l4.56-2.69a.26.26 0 01.39.22v4.29a.55.55 0 01-.27.48l-4.57 2.63a.25.25 0 01-.38-.22v-4.24a.55.55 0 01.27-.47zm0 8.17l4.56-2.7a.26.26 0 01.39.22v4.3a.55.55 0 01-.27.47l-4.57 2.64a.26.26 0 01-.38-.23v-4.23a.52.52 0 01.27-.47z"/><path class="cls-36" d="M241.88 97.28l2.99 1.76v16.8l-2.99-1.73V97.28zm-4.29 1.4l2.99 1.76v12.89l-2.99-1.72V98.68zm-4.29 1.37l2.99 1.76v8.99l-2.99-1.73v-9.02zm-4.24 1.37l2.99 1.76v5.08l-2.99-1.73v-5.11zm-4.19.68l2.99 1.76v1.96l-2.99-1.72v-2z"/><path d="M148.69 191.91l47.88-27.67a7.82 7.82 0 017.8 0l21.83 12.65a2.07 2.07 0 010 3.58l-47.77 27.85a7.82 7.82 0 01-7.92 0l-21.85-12.84a2.06 2.06 0 01.03-3.57z" fill="url(#linear-gradient-24)"/><path d="M148.69 177.87l47.88-25.55a7.82 7.82 0 017.8 0l22.07 10.87c1.37.79 1.14 4.55-.23 5.35l-47.77 27.86a7.82 7.82 0 01-7.92 0l-21.85-12.84c-1.37-.79-1.36-4.9.02-5.69z" fill="url(#linear-gradient-25)"/><path class="cls-1" d="M148.69 177.87l47.88-27.67a7.82 7.82 0 017.8 0l21.83 12.65a2.07 2.07 0 010 3.58l-47.77 27.85a7.82 7.82 0 01-7.92 0l-21.85-12.83a2.07 2.07 0 01.03-3.58z"/><path d="M150 178.28l47.88-27.67c2.42-1.39 4.65-.12 3.29.68l-48.56 28.3c-2.49 1.41-4.03-.52-2.61-1.31z" fill="url(#linear-gradient-26)"/><path class="cls-40" d="M223.4 204.23v.05c-.43.67-4.83 4-4.1 4.33 1.95.89 5.36-2.75 5.69-3.47l.01-.14zm-10.34-4.87v.06c-.42.68-4.71 4.13-4 4.44 2 .84 5.28-2.91 5.59-3.64l.06-.15z"/><path d="M226.91 159.76c.15 2-.94 13.32-.51 22.69a125.57 125.57 0 01-1 22.35c-1.52.85-3-.51-3-.51s-1.56-18.28-1.86-21.67c-.34-3.89-1-17.27-2-17.27s-2.39 22.18-2.2 18c0-.8-1 17.18-1 17.44l-3.55-.85s-1-20-1-22.35.51-21.49.51-21.49z" fill="url(#linear-gradient-27)"/><path id="_Path_" data-name="&lt;Path&gt;" class="cls-34" d="M247.86 148.09l-19.39-11.21a1.29 1.29 0 01-.62-1.08l.12-19.49a.89.89 0 011.38-.78l19.39 11.2a1.28 1.28 0 01.63 1.08l-.13 19.49a.89.89 0 01-1.38.79z"/><path id="_Path_2" data-name="&lt;Path&gt;" class="cls-34" d="M239.94 134.5l-9.1-5.25a.63.63 0 01-.29-.51l.06-9.14a.42.42 0 01.65-.37l9.09 5.25a.59.59 0 01.29.51v9.14a.42.42 0 01-.7.37z"/><path class="cls-40" d="M227 133.23a27.76 27.76 0 00-6-2c-3.76-.46-9 1.28-9.62 2.28s.92 8.49.58 17.18c-.18 4.5-1.47 8.48-1.47 10.5 0 1.82 17.12 4.89 17.16 3.95.11-3.27-.79-11.51-.79-13.32-.02-5.08.34-16.35.14-18.59z"/><path class="cls-42" d="M217 132.78l3-.32c-.35-.93-.05-4.7-.05-4.7l-3.63 2a13 13 0 00.41 3.56s.27-.56.27-.54z"/><path class="cls-40" d="M226.84 133.57c1.17 2 5.7 14.29 4.4 18.73-.15.09-3.81 10-5 10.87-.26.18-2.34-1.93-1.78-3.19a90.66 90.66 0 003-9c.43-1.45-2.77-5.23-2.82-5.65-.31-3.25 1.86-12.33 2.2-11.76z"/><path class="cls-42" d="M214.76 120.1c-1.25.26-1.65 2.07-1.76 3.65a7 7 0 00.25 2.33l.95 3.45c.5 1.79 2.25 1.65 6.4-1.28v-6.45a3.51 3.51 0 00-4.2-3.44z"/><path class="cls-10" d="M219.47 126.53c.11-1.27-.81-.76.08-4.61-1.16-.91-3 0-3.44.25-2.37 1.42-4.17 1-4-.26a7.29 7.29 0 016.57-4.26 4.75 4.75 0 013.5 1.69c1.62 2.16 1.25 5.49.07 7.58-.41.73.63 1.48-.42 2.16-3.68 1.78-2.42-1.9-2.36-2.55z"/><path class="cls-42" d="M221.44 125.57c-.16.73-.67 1.24-1.14 1.14s-.72-.78-.56-1.51.66-1.24 1.14-1.13.72.77.56 1.5z"/><path fill="url(#linear-gradient-28)" d="M215.3 131.79l1.34 5.53 4.52-6.02-1.12-.3-3.16 1.66-1.58-.87z"/><path fill="url(#linear-gradient-29)" d="M221.22 131.17l-1.41-.96-2.61 2.22-.9-1.55-1.06.79-.17 2.74 2.05-1.44 2.58 1.44 1.52-3.24z"/><path class="cls-40" d="M211.36 133.54c-1 1.81-3.25 13.3-3.25 13.3l-4.3-3.23-1.69 3.61s6 5.93 7.79 4.52 3.83-8 3.83-8z"/><path class="cls-10" d="M214.36 124.18l-1.7.34v.56h1.7v-.9zm1.21-.13l2.45.33v.57h-2.45v-.9zm-1.79 3.95a1.81 1.81 0 011.29-.58c.8 0 1.23.59 1.91.75a1.91 1.91 0 002.49-1.64c.11-1.67 0-2.76 1-3.09s-.5 1.58-.2 4-3.1 4.34-4.86 4.34c-2.94.03-1.63-3.78-1.63-3.78z"/><path d="M352.04 254.73l45.7 27.11m-69.98-12.7l45.7 27.11m-69.98-12.7l45.7 27.11m-69.98-12.7l45.7 27.11m-69.98-12.7l45.7 27.11m-69.98-12.7l45.69 27.11m-69.97-12.7l45.69 27.11m-69.97-12.69l45.69 27.11m-69.97-12.7l45.69 27.11m-69.97-12.7l45.69 27.11" stroke="#fff" stroke-linecap="round" fill="none" stroke-miterlimit="10"/><path d="M356 286.08h4.88l18.36-10.75a.19.19 0 000-.32l-14.73-8.77c-.06 0-5.5 3.11-5.56 3.14l-11.4 7.18z" fill="url(#linear-gradient-30)" opacity=".2"/><path class="cls-10" d="M343.65 277.86l10.17-2.52a3.49 3.49 0 013.48 0l10.22 2.38v1.15a1.11 1.11 0 01-.46 1.06l-9.66 5.68a3.48 3.48 0 01-3.54 0l-9.76-5.74a1 1 0 01-.45-1z"/><path d="M343.65 267l10.17-5.18a3.49 3.49 0 013.48 0l10.22 5v11.79a1.1 1.1 0 01-.46 1.05l-9.66 5.69a3.5 3.5 0 01-3.54 0l-9.76-5.73a1 1 0 01-.45-1z" fill="url(#linear-gradient-31)"/><path class="cls-48" d="M344.1 266.12l9.72-5.6a3.49 3.49 0 013.48 0l9.76 5.65a.92.92 0 010 1.6l-9.66 5.68a3.5 3.5 0 01-3.54 0l-9.76-5.73a.93.93 0 010-1.6z"/><path class="cls-34" d="M344.1 266.12l9.72-5.6a3.49 3.49 0 013.48 0l9.76 5.65a.92.92 0 010 1.6l-9.66 5.68a3.5 3.5 0 01-3.54 0l-9.76-5.73a.93.93 0 010-1.6z"/><path d="M298.23 319.07h4.89l18.36-10.75a.19.19 0 000-.32l-14.73-8.76c-.06 0-5.5 3.1-5.56 3.13l-11.4 7.18z" fill="url(#linear-gradient-32)" opacity=".2"/><path class="cls-10" d="M285.89 310.85l10.17-2.52a3.49 3.49 0 013.48 0l10.21 2.38v1.15a1.12 1.12 0 01-.45 1.06l-9.66 5.68a3.48 3.48 0 01-3.54 0l-9.77-5.74a1 1 0 01-.44-1z"/><path d="M285.89 300l10.17-5.18a3.49 3.49 0 013.48 0l10.21 5v11.79a1.1 1.1 0 01-.45 1.05l-9.66 5.69a3.5 3.5 0 01-3.54 0l-9.77-5.73a1 1 0 01-.44-1z" fill="url(#linear-gradient-33)"/><path class="cls-48" d="M286.34 299.11l9.72-5.6a3.49 3.49 0 013.48 0l9.75 5.65a.92.92 0 010 1.6l-9.66 5.68a3.48 3.48 0 01-3.54 0l-9.77-5.73a.93.93 0 01.02-1.6z"/><path class="cls-34" d="M286.34 299.11l9.72-5.6a3.49 3.49 0 013.48 0l9.75 5.65a.92.92 0 010 1.6l-9.66 5.68a3.48 3.48 0 01-3.54 0l-9.77-5.73a.93.93 0 01.02-1.6z"/><path d="M219.55 366.39h4.88l18.36-10.75a.19.19 0 000-.32l-14.73-8.76c-.06 0-5.5 3.1-5.56 3.14l-11.4 7.18z" fill="url(#linear-gradient-34)" opacity=".2"/><path class="cls-10" d="M207.2 358.18l10.17-2.53a3.49 3.49 0 013.48 0l10.22 2.35v1.15a1.13 1.13 0 01-.46 1.06l-9.61 5.72a3.5 3.5 0 01-3.54 0l-9.76-5.74c-.38-.21-.45-.53-.45-1z"/><path d="M207.2 347.36l10.17-5.19a3.49 3.49 0 013.48 0l10.22 5V359a1.13 1.13 0 01-.46 1.06l-9.61 5.67a3.48 3.48 0 01-3.54 0l-9.81-5.73a1 1 0 01-.45-1z" fill="url(#linear-gradient-35)"/><path class="cls-48" d="M207.65 346.43l9.72-5.6a3.49 3.49 0 013.48 0l9.76 5.65a.93.93 0 010 1.6l-9.61 5.68a3.48 3.48 0 01-3.54 0l-9.81-5.76a.92.92 0 010-1.57z"/><path class="cls-34" d="M207.65 346.43l9.72-5.6a3.49 3.49 0 013.48 0l9.76 5.65a.93.93 0 010 1.6l-9.61 5.68a3.48 3.48 0 01-3.54 0l-9.81-5.76a.92.92 0 010-1.57z"/><path d="M176.59 393.93h4.88l18.36-10.75a.18.18 0 000-.31l-14.73-8.77c-.06 0-5.49 3.1-5.55 3.14l-11.4 7.18z" fill="url(#linear-gradient-36)" opacity=".2"/><path class="cls-10" d="M164.24 385.72l10.17-2.53a3.51 3.51 0 013.49 0l10.21 2.38v1.16a1.12 1.12 0 01-.45 1.06l-9.66 5.68a3.49 3.49 0 01-3.53 0l-9.77-5.73a1 1 0 01-.45-1z"/><path d="M164.24 374.9l10.17-5.19a3.51 3.51 0 013.49 0l10.21 5v11.78a1.12 1.12 0 01-.45 1.06l-9.66 5.72a3.46 3.46 0 01-3.53 0l-9.77-5.74a1 1 0 01-.45-1z" fill="url(#linear-gradient-37)"/><path class="cls-48" d="M164.7 374l9.71-5.61a3.51 3.51 0 013.49 0l9.75 5.66a.92.92 0 010 1.59l-9.65 5.67a3.49 3.49 0 01-3.53 0l-9.77-5.74a.92.92 0 010-1.57z"/><path class="cls-34" d="M164.7 374l9.71-5.61a3.51 3.51 0 013.49 0l9.75 5.66a.92.92 0 010 1.59l-9.65 5.67a3.49 3.49 0 01-3.53 0l-9.77-5.74a.92.92 0 010-1.57z"/><path d="M253.16 284.88a12.47 12.47 0 00-3.69-.89 14.21 14.21 0 00-3.25 0 7.81 7.81 0 00-4.3 2.2c-.8.73-1.48 1.63-.78 2.24l.15-.14c-.13.36.05.66.42.91l-.64.24-.23-.28-1.89.2v.06a29.58 29.58 0 00-6.6.23c-3.22.36-11.81 4.46-13.25 6.42.07.05-4.15 4.42-4.53 5.64-2.49 1.88-7 5.41-11.68 8.34a56.76 56.76 0 00-12.69 11.51 13.35 13.35 0 002.58 2.58c.69.29-.21-2.23-.21-2.23s13.37-9.58 15.71-10.95c2.69-1.58 11.47-7.07 12.41-6.93s-11.31 9.6-8.91 7.81c.46-.34-9.54 7.31-9.69 7.42h.82a2.77 2.77 0 003 2.14c.7 0-.39-1.36-.81-2.05h.82s13.13-8.2 14.57-9.19c.87-.59 5.23-3.72 8.59-6.14l5.58 2.52 13.25-9.54-5.41-1c1.35-1.47 2.86-3.41 2.63-4.39a1.21 1.21 0 00.21-.34c0-.21-.43-.49-1.2-.78l-.42-.41-.55.13h-.05l.62-.28a6.51 6.51 0 003.19-.07l4.76-3.26.14-.11a.93.93 0 00.47-.14c.7-.46 1.3-1.18.86-1.47zm-11 2.77h.05l-.49.33zm1.44-1l.36-.19z" fill="url(#linear-gradient-38)"/><path class="cls-40" d="M192.13 321.49v.05c.41.62 4.52 3.74 3.84 4-1.82.84-5-2.58-5.33-3.25l-.07-.15zm9.68-4.56a.11.11 0 010 .05c.39.64 4.41 3.87 3.72 4.16-1.85.79-4.94-2.72-5.23-3.41l-.06-.14z"/><path d="M188.84 279.82c-.15 1.86.87 12.48.47 21.26a116.75 116.75 0 001 20.94 2.66 2.66 0 002.85-.47s1.47-17.13 1.75-20.31c.31-3.65.95-16.18 1.9-16.18s2.24 20.78 2.06 16.82c0-.75.94 16.09.95 16.34l3.34-.8s.95-18.72.95-20.94-.48-20.13-.48-20.13z" fill="url(#linear-gradient-39)"/><path d="M188.84 255.6a9.79 9.79 0 015.55-2.49c3.53-.43 6.73.59 7.3 1.53.87 1.42 3.07 21.19 2.22 22.31-1 1.36-15 4.08-15.07 3.2-.16-3.56-2.33-21.83 0-24.55z" fill="url(#linear-gradient-40)"/><path d="M201.16 254.6c2.64 1.48 4.54 12.27 4.55 13.43 0 2.61.19 9.9-2.34 12-.72.58-.73-10.7-.73-10.7z" fill="url(#linear-gradient-41)"/><path class="cls-42" d="M198.13 254.54l-2.53-.91c.33-.86-.08-4-.08-4l3.83 1.7a22.07 22.07 0 01-.84 3.12s-.37.07-.38.09z"/><path d="M189.31 255.23c-2.33.88-4.71 11.5-3.49 15.66.14.08 2.16 7.49 3 8.58 1.85 2.48 5.56 3 5.06 1.95a38.55 38.55 0 01-3.66-12.69c.31-3.02 2.52-14.73-.91-13.5z" fill="url(#linear-gradient-42)"/><path class="cls-42" d="M198.69 241a3.29 3.29 0 012.62 3.22l.46 1.39a54.18 54.18 0 01-.46 5.92c0 1.21-5.2 1.93-6.56-1.27v-6a3.28 3.28 0 013.94-3.22z"/><path class="cls-40" d="M194.84 248c-.15-1.63-.12-3 1.12-3.92s3.39 3.09 6.12.62c.92-.83.77-2.29-.92-3.24-.94-.52-5.64-3.48-8.42-.27-2.16 2.49-.29 6.52-.14 8.11.22 2.13 2.39 3.18 2.92 2.12-.11-.53-.63-2.87-.68-3.42z"/><path class="cls-42" d="M193.72 247.9c.14.64.59 1.09 1 1s.64-.68.5-1.32-.59-1.09-1-1-.64.68-.5 1.32z"/><path fill="url(#linear-gradient-43)" d="M199.72 253.61l-1.26 5.18-4.3-5.63 1.11-.29 2.96 1.56 1.49-.82z"/><path class="cls-36" d="M194.16 253.03l1.33-.9 2.44 2.08.99-1.34.85.63.14 2.22-1.91-1-2.61 1.26-1.23-2.95z"/><path class="cls-10" d="M191.51 278.29l10.17-2.53a3.49 3.49 0 013.48 0l10.21 2.38v1.16a1.1 1.1 0 01-.45 1.05l-9.66 5.65a3.5 3.5 0 01-3.54 0l-9.72-5.69a1 1 0 01-.45-1z"/><path d="M191.51 267.47l10.17-5.19a3.49 3.49 0 013.48 0l10.21 5v11.82a1.12 1.12 0 01-.45 1.06l-9.66 5.68a3.48 3.48 0 01-3.54 0l-9.72-5.73a1 1 0 01-.45-1z" fill="url(#linear-gradient-44)"/><path class="cls-48" d="M192 266.55l9.72-5.61a3.49 3.49 0 013.48 0l9.76 5.66a.92.92 0 010 1.59l-9.66 5.69a3.5 3.5 0 01-3.54 0l-9.76-5.74a.92.92 0 010-1.59z"/><path class="cls-34" d="M192 266.55l9.72-5.61a3.49 3.49 0 013.48 0l9.76 5.66a.92.92 0 010 1.59l-9.66 5.69a3.5 3.5 0 01-3.54 0l-9.76-5.74a.92.92 0 010-1.59z"/><path d="M160.57 180.81l9.29-5.78a2 2 0 012.1 0l12.91 7.69a1 1 0 010 1.68l-9 5.8a2 2 0 01-2.1 0l-13.2-7.73a1 1 0 010-1.66z" fill="url(#linear-gradient-45)"/><path d="M170.58 178.76l9.3-5.78a2 2 0 012.09 0l12.91 7.69a1 1 0 010 1.68l-9 5.8a2 2 0 01-2.1.05l-13.19-7.72a1 1 0 01-.01-1.72z" fill="url(#linear-gradient-46)"/><path d="M190 160.5a1.92 1.92 0 012 0l12.32 7.34a.94.94 0 010 1.6 1.67 1.67 0 01-1.74.06L190 162.11a.93.93 0 010-1.61z" fill="url(#linear-gradient-47)"/><path d="M187.88 165.07a.75.75 0 00-.75 0L174 173.71a.36.36 0 000 .6.63.63 0 00.66 0l13.24-8.65a.36.36 0 00-.02-.59z" fill="url(#linear-gradient-48)"/><path id="_Path_3" data-name="&lt;Path&gt;" class="cls-34" d="M275.54 132.65l-19.39-11.21a1.25 1.25 0 01-.62-1.08l.12-18.49a.89.89 0 011.38-.78l19.39 11.2a1.25 1.25 0 01.62 1.09l-.12 18.49a.89.89 0 01-1.38.78z"/><path id="_Path_4" data-name="&lt;Path&gt;" class="cls-34" d="M270.11 181.59L258.64 175a.74.74 0 01-.37-.64l.07-10.94a.53.53 0 01.82-.47l11.47 6.64a.73.73 0 01.37.64l-.07 10.94a.53.53 0 01-.82.42z"/><path id="_Path_5" data-name="&lt;Path&gt;" class="cls-34" d="M285 180.8l-4.81-2.8a.33.33 0 01-.15-.27v-4.58a.22.22 0 01.34-.2l4.81 2.78a.32.32 0 01.15.27v4.58a.21.21 0 01-.34.22z"/><path id="_Path_6" data-name="&lt;Path&gt;" class="cls-34" d="M285 189.53l-4.81-2.77a.33.33 0 01-.15-.27v-4.58a.22.22 0 01.34-.2l4.81 2.78a.32.32 0 01.15.27v4.58a.21.21 0 01-.34.19z"/><path id="_Path_7" data-name="&lt;Path&gt;" class="cls-34" d="M285 198.26l-4.81-2.77a.33.33 0 01-.15-.27v-4.59a.22.22 0 01.34-.19l4.81 2.78a.32.32 0 01.15.27v4.58a.21.21 0 01-.34.19z"/><path id="_Path_8" data-name="&lt;Path&gt;" class="cls-34" d="M275.45 164.1l-19.39-11.21a1.27 1.27 0 01-.62-1.08l.12-19.49a.89.89 0 011.38-.78l19.39 11.2a1.25 1.25 0 01.62 1.08l-.12 19.49a.89.89 0 01-1.38.79z"/><path id="_Path_9" data-name="&lt;Path&gt;" class="cls-66" d="M241.88 126.25l5.77 3.34"/><path id="_Path_10" data-name="&lt;Path&gt;" class="cls-66" d="M241.88 128.54l5.77 3.33"/><path id="_Path_11" data-name="&lt;Path&gt;" class="cls-66" d="M241.88 130.82l5.77 3.34"/><path id="_Path_12" data-name="&lt;Path&gt;" class="cls-66" d="M241.88 133.11l5.77 3.33"/><path id="_Path_13" data-name="&lt;Path&gt;" class="cls-66" d="M241.88 135.39l5.77 3.34"/><path id="_Path_14" data-name="&lt;Path&gt;" class="cls-66" d="M230.55 131.39l17.1 9.62"/><path id="_Path_15" data-name="&lt;Path&gt;" class="cls-66" d="M230.26 133.54l17.39 9.75"/><path id="_Path_16" data-name="&lt;Path&gt;" class="cls-34" d="M249.37 130.92l6.31 3.65"/><path id="_Path_17" data-name="&lt;Path&gt;" class="cls-34" d="M276.95 160.59l6.33 3.65-.08 10.4"/><path id="_Path_18" data-name="&lt;Path&gt;" class="cls-66" d="M258.99 137l15.1 8.72"/><path id="_Path_19" data-name="&lt;Path&gt;" class="cls-66" d="M258.99 138.9l15.1 8.73"/><path id="_Path_20" data-name="&lt;Path&gt;" class="cls-66" d="M258.99 140.81l15.1 8.73"/><path id="_Path_21" data-name="&lt;Path&gt;" class="cls-66" d="M258.99 142.72l15.1 8.73"/><path id="_Path_22" data-name="&lt;Path&gt;" class="cls-66" d="M258.99 144.63l15.1 8.72"/><path id="_Path_23" data-name="&lt;Path&gt;" class="cls-66" d="M258.99 146.54l15.1 8.72"/><path id="_Path_24" data-name="&lt;Path&gt;" class="cls-66" d="M258.99 148.45l15.1 8.72"/><path id="_Path_25" data-name="&lt;Path&gt;" class="cls-66" d="M258.99 150.36l10.14 5.69"/><path id="_Path_26" data-name="&lt;Path&gt;" class="cls-66" d="M260.57 167.21l7.91 4.45"/><path id="_Path_27" data-name="&lt;Path&gt;" class="cls-66" d="M260.57 169.43l7.91 4.45"/><path id="_Path_28" data-name="&lt;Path&gt;" class="cls-66" d="M260.57 171.66l7.91 4.45"/><path id="_Path_29" data-name="&lt;Path&gt;" class="cls-34" d="M274.58 130.54l-16.92-9.78a1.08 1.08 0 01-.53-.92l.11-16.18a.5.5 0 01.78-.44l16.89 9.78a1.08 1.08 0 01.53.92l-.11 16.21a.48.48 0 01-.75.41z"/><path id="_Path_30" data-name="&lt;Path&gt;" d="M266.31 123.44c-1.39 0-3.26-2-4.17-4.43-1.05-2.81-1-5.88.12-7.74s3-2.12 4.78-.65l-.12.48c-.41 1.6-.84 3.18-1.23 4.8a4.18 4.18 0 00-.07 1.29c.19 1.89.42 3.79.64 5.68.02.19.04.38.05.57z" fill="url(#linear-gradient-49)"/><path id="_Path_31" data-name="&lt;Path&gt;" class="cls-36" d="M266.88 123.57c-.24-2.07-.46-4.06-.7-6.12l3.69 3.39c-.6 1.76-1.59 2.64-2.99 2.73z"/><path id="_Path_32" data-name="&lt;Path&gt;" class="cls-36" d="M267.58 111.13c2 1.82 3.14 6.05 2.49 8.91l-3.87-3.56z"/><path class="cls-40" d="M245.43 218l-.24.93c.72.18 5-.09 4.73.58-.75 1.83-5.33 1.51-6 1.23l-.14-.06-.06-2.68zm-9.43-5.4s-.24.93-.23.93c.71.18 5-.1 4.73.58-.75 1.82-5.33 1.51-6 1.23l-.15-.06-.06-2.68z"/><path d="M247.57 177.52c.15 1.81.14 10.57-.46 19.44-.67 9.82-.79 20.71-1 21.63a2.64 2.64 0 01-2.8-.47s-1.35-17.89-1.62-21c-.31-3.58-.93-15.87-1.86-15.87s-2.2 20.38-2 16.49c0-.73-1 15.47-1.18 15.63-.64.57-2.88.36-3-.38-.87-4.75-.41-18-.41-20.15v-16z" fill="url(#linear-gradient-50)"/><path class="cls-42" d="M250.18 174.84c-.73.95-1.77 1.38-2.31 1s-.39-1.53.34-2.48 1.77-1.39 2.32-1 .39 1.53-.35 2.48zm-11.53-26.12h4.68c0-.91-.1-2.8-.1-2.8l-4.27-.09a10.51 10.51 0 00-.33 2.78.14.14 0 00.02.11z"/><path class="cls-40" d="M246.67 139.4a9.09 9.09 0 01-.14 2.1c-.3 1.67-.13 3.55-1.75 4.44a7.44 7.44 0 01-7.37-.38c-.92-.61-.56-1.6-.56-2.59 0-1.22-.38-2.47-.38-3.74 0-3.06 1.8-5.79 4.76-5.95 3.63-.2 5.31 2.97 5.44 6.12z"/><path d="M256.42 162.74c-.31-2.18-8.67-12.87-8.77-13-2.29-2.3-10.64-2.68-14-1.47a2.38 2.38 0 00-1.13.87c-1.4 2-5.89 8.68-6.28 11.7-.34 2.58 3 4.91 5 6-.22 4.14-1 8.88-.83 10.73s19 3.52 18.82 2.65c-.39-1.67 0-4.92-.15-7.38l1.94 1.82s5.71-9.75 5.4-11.92zm-26.13-2.34l1.49-2.06c-.12 1.4-.23 2.86-.33 4.32zm18.29.14l2.71 4.06-2.39 6.16c-.19-3.34-.27-6.96-.32-10.22z" fill="url(#linear-gradient-51)"/><path class="cls-40" d="M260.77 279.75c0 .72-.07 1.2-.08 1.31 0 .82 1.34 5.88 3.59 6 .83.05-1.62-5.19-1.69-6v-.18a5.16 5.16 0 01-1.82-1.13z"/><path class="cls-42" d="M266.13 249.89l-4.66-1.55.54 9.74s-1 17.31-1.32 22.05a5.26 5.26 0 001.83 1.11c.12-2.16 2.8-23 2.8-23z"/><path class="cls-42" d="M260.82 284c-.19-.81-.32-21.83-.32-21.83l-.36-8.4-4.83-.9 1.89 9.58s1.48 18.55 1.72 21.47a6.89 6.89 0 002 .35 2.51 2.51 0 01-.1-.27zm6.18-66.88l-.6.72-.11 18.81 1.18 2.02.47-11.37-.94-10.18z"/><path class="cls-40" d="M254.82 236.26c.53-1.59 1.95-2.53 2-3.65l10-1.3a12.05 12.05 0 00.09 1.54c.17 1.32 1.64 20.56 1 27-.13.21-13.78 1.81-14.52 1.07.06-.07.88-23.04 1.43-24.66zm2.58-27.54a8.66 8.66 0 01-1.37 2.45 7.77 7.77 0 00-1.21 3c-.21 1.51.24 3.1-.12 4.58a3.87 3.87 0 01-2 2.51c.54-2.47-.79-4.92-1.22-7.41-.71-4.21-.07-9.28 5.51-6.86a.76.76 0 01.37.26.78.78 0 01.09.4 3.7 3.7 0 01-.05 1.07z"/><path class="cls-42" d="M264.54 204.56v8.89c0 1.35-5.82 2.16-7.34-1.42v-4z"/><path class="cls-40" d="M265.1 205c.39 1.56.18 2.81-.56 3.29v-1.84c-.91 1.42-3.52 1.57-5.74 1.48-1.26 0-.26 1.92-.62 2.22-1.25 1-.22 3-.22 3-1.26-.5-2.47-1.8-2.71-5.5-.19-2.86.61-3.92 3.46-5.06 1.78-.73 5.8.01 6.39 2.41z"/><path class="cls-42" d="M256.61 211.16c.16.72.66 1.22 1.12 1.12s.71-.76.56-1.48-.66-1.22-1.12-1.12-.71.76-.56 1.48z"/><path class="cls-40" d="M267.89 221a6.13 6.13 0 00-.78-2.5c0-.78.81-1.68.3-2.45-.39-.6-3.63-.65-5.24-.58s-1.26.23-3 .31c-1 .05-3.51 1.41-4.3 1.63a2.53 2.53 0 00-1.85 2.54 6.2 6.2 0 01-.08.82h3.39l.48 11.84c-.07 1.09 10 0 9.82-1.28a11.41 11.41 0 010-1.86s1.17-7.47 1.26-8.47z"/><path class="cls-70" d="M267 232.49a12.05 12.05 0 01-.09-1.54l-10 1.31c0 .75-.71 1.42-1.29 2.26zm-7.65-16.78c-1.7.7-1.12 2-.16 2.54s2.42-.06 2.43-1.19z"/><path class="cls-70" d="M261.34 217.15a1.54 1.54 0 002.56-.22 1.26 1.26 0 00-.45-1.55h-1.4z"/><path class="cls-42" d="M261.44 217.1c.6-.25 1.13-.87.93-1.49a12.09 12.09 0 01-.2-3.18l-2.21.18a16 16 0 01-.61 3.1c-.41.99 1.1 1.81 2.09 1.39z"/><path d="M258.26 237.45l-10.39-1.82 2.23-9.06a.42.42 0 01.48-.32l8.32 1.46a.43.43 0 01.35.47z" fill="url(#linear-gradient-52)"/><path class="cls-42" d="M253.39 220.68s-2.73 10.06-2.37 11.71 5.92 5.33 5.92 5.33l.82-1.18-4.37-4.86 3-10.9z"/><path class="cls-40" d="M260.92 284.22a6.89 6.89 0 01-2-.35v.36a10.61 10.61 0 00-.24 2.79l1 .11.31-.39c.83 1.49 2.07 3.05 3.36 2.94.75-.07-1.87-4.18-2.43-5.46z"/><path class="cls-34" d="M265.3 158.23v8.22"/><path class="cls-66" d="M235.8 141.06v6.22"/><path class="cls-34" d="M282.7 179.48v3.56m0 5.41V192"/><path class="cls-42" d="M192.31 280.51s-1.18 1.3 1.07 2.24 2.59-.09 2.59-.09z"/><path class="cls-9" d="M561.82 270.02l-79.92 49.7 70.17 44.39"/><path d="M564.18 226.76L620.36 194a2.24 2.24 0 013.38 1.94v80.86a4.78 4.78 0 01-2.38 4.13l-56.17 32.3a2.25 2.25 0 01-3.37-2v-80.4a4.78 4.78 0 012.36-4.07z" fill="url(#linear-gradient-53)"/><path d="M386.21 315.23l85.9-51.09a2.47 2.47 0 013.71 2.13V333a5.22 5.22 0 01-2.62 4.53l-85.88 50.55a2.48 2.48 0 01-3.7-2.14v-66.2a5.22 5.22 0 012.59-4.51z" fill="url(#linear-gradient-54)"/><path class="cls-34" d="M571.43 230.32l17-10a1 1 0 011.44.82v16a2 2 0 01-1 1.76l-17 9.82a1 1 0 01-1.44-.83v-15.82a2 2 0 011-1.75z"/><path d="M571.43 257.91l17-10a1 1 0 011.44.83v16a2 2 0 01-1 1.76l-17 9.82a1 1 0 01-1.44-.83v-15.83a2 2 0 011-1.75z" fill="url(#linear-gradient-55)"/><path d="M571.43 284.14l17-10a1 1 0 011.44.82v16a2 2 0 01-1 1.76l-17 9.81a1 1 0 01-1.44-.83v-15.81a2 2 0 011-1.75z" fill="url(#linear-gradient-56)"/><path class="cls-34" d="M597.05 269.82l17-10a1 1 0 011.44.82v16a2 2 0 01-1 1.76l-17 9.81a1 1 0 01-1.44-.83v-15.81a2 2 0 011-1.75z"/><path d="M597.05 216.63l17-10a1 1 0 011.44.83v16a2 2 0 01-1 1.76l-17 9.82a1 1 0 01-1.44-.83v-15.83a2 2 0 011-1.75z" fill="url(#linear-gradient-57)"/><path class="cls-34" d="M597.05 244.33l17-10a1 1 0 011.44.82v16a2 2 0 01-1 1.76l-17 9.81a1 1 0 01-1.44-.83v-15.81a2 2 0 011-1.75z"/><path class="cls-66" d="M572.63 260.2l14.58-8.61m-14.58 11.22l14.58-8.6m-14.58 11.22l14.58-8.61m-14.58 11.22l14.58-8.6m-14.58 11.22l14.58-8.6m-14.58 11.21l14.58-8.6m-14.58 21.93l14.58-8.61m-14.58 11.22l14.58-8.6m-14.58 11.22l14.58-8.61m-14.58 11.22l14.58-8.6m-14.58 11.22l14.58-8.61m-14.58 11.22l14.58-8.6"/><path d="M667.84 291.7c-.09-.6-2.74-1.21-5.88-1.59l.1-.15-.81.07.27-.17a14.73 14.73 0 003.86-.59l.5-.29c-.22.23-.21.45.35.57-.42-.09 1.67-.69 1.88-.76.85-.31 1.64-.63 2.36-1 1.4-.65 3.59-1.69 2.77-2.33a5.37 5.37 0 00-2.31-.74 20.8 20.8 0 00-4.27-.17 9.57 9.57 0 00-3.07.45c-.39.17-.49.33-.39.46a5.32 5.32 0 00-1 .43l-5.31 3.12c-.34.2.26.45 1.35.62l-.2.11h-.29l-.11-.1-.3.09a21.08 21.08 0 00-4.57.23 22.2 22.2 0 00-3.82 1.28c-5.2 1.63-12 4.52-12.64 5.39s-1.06 1.53-.85 2l-.83.57c-.13.1-29.73 16-29.73 16l.7.16c-2.21.35-4.25 2.23-3.79 2.4 1.4.49 4-1.62 5.64-2l.7.16c.18-.1 28.78-12.46 29.69-12.37 1.09.11-6.42 5.95-8.71 7.54L616.4 320a1.74 1.74 0 00.39.24c-2 .32-3.44 1.76-3 1.94 1.49.57 4-1.31 4.83-1.56l.18-.05a5 5 0 00.54 0 143.39 143.39 0 0016.3-8.81c4.66-3 11.69-7.16 15-9.2a63.85 63.85 0 0013.2-3.36c3-1.85 4.6-5.85 3.91-7.22a.51.51 0 00.09-.28zm.09-3.94z" opacity=".64" fill="url(#linear-gradient-58)"/><path class="cls-40" d="M615.15 318.89v.05c-.42.65-4.68 3.87-4 4.19 1.88.87 5.19-2.66 5.51-3.36l.07-.15zm-10.01-4.71a.08.08 0 010 .05c-.4.66-4.56 4-3.84 4.31 1.91.81 5.11-2.82 5.41-3.52l.06-.16z"/><path class="cls-40" d="M617.49 273c.15 1.92.15 15.78.57 24.86a120.13 120.13 0 01-1 21.64 2.77 2.77 0 01-3-.49s-1.51-17.71-1.8-21c-.33-3.77-2.18-17.4-3.16-17.4s-2 20-1.86 15.91c0-.77 0 18.78-.06 19l-3.45-.82s-1.9-21.49-1.9-23.79.35-18.6.35-18.6z"/><path class="cls-70" d="M616.56 249.6c-1.78-2.54-11.92-2.89-13.78-.39-2.55 3.42-2.28 18.36-1.8 23 .15 1.44 17 2.59 17.08 1.84.15-3.05.94-21.05-1.5-24.45z"/><path class="cls-42" d="M616.07 276.63c-.77 1-1.71 3.87-2.28 3.43a3 3 0 01.2-5c1-.77 1.87-1.45 2.44-1s.42 1.56-.36 2.57zm-8.65-42.11a3.39 3.39 0 00-2.72 3.32l-.19.58a10.09 10.09 0 00-.08 6.08l.27.9c0 1.25 5.38 2 6.79-1.31v-6.25a3.39 3.39 0 00-4.07-3.32z"/><path class="cls-40" d="M611.42 242.14c0-.47.1-.95.1-1.43a3.93 3.93 0 00-1.29-3.09c-1.37-1-4.08.63-5.61.46-.8-.08-3-5.58 5.23-4.48a5.66 5.66 0 012.73 1c1.47 1.17 1.15 3.78.93 5.41a20.17 20.17 0 00-.39 2.65c0 1.05 1.39 2.71-.62 3.21-3.5 1.25-1.17-2.87-1.08-3.73z"/><path class="cls-42" d="M612.55 241.62c-.15.66-.61 1.12-1 1s-.65-.7-.51-1.37.61-1.12 1-1 .65.75.51 1.37zm-6.55 7.01h3.82c0-1-.1-3-.1-3h-3.48a14.28 14.28 0 00-.26 2.94.14.14 0 01.02.06z"/><path class="cls-78" d="M607.99 267.55l-1.42 1.97-.98-2.95 1.42-17.6.65.11.33 18.47z"/><path class="cls-42" d="M585.07 262.79s-8.07.86-8.07 2.21c0 .86 3.31-.09 3.31-.09s0 2.59 1.76 2.42 5.74-2.47 5.74-2.47z"/><path class="cls-70" d="M602.32 250c-2.46 3.06-4.25 9.25-4.25 9.25s-15.85 3.54-14.37 3.54 2.75 2.71 2.75 2.71 13.12 3.18 15.71-3.11c.22-.55.33-11.69.16-12.39zm13.93-.44c2.14 1.57 6.89 11.49 7 16.37-.82 4.56-5.24 9.92-6.39 10.07s-4.09-1.36-2.95-2.67c.82-.95 4.1-9.29 4.1-9.29s-5.01-12.43-1.76-14.48zm-5.68-.39l-.71-1.96-2.44 1.4-1.33-1.08-.76 1.53 1.31 1.59.74-1.69.62 1.91 2.57-1.7z"/><path class="cls-66" d="M184.32 112.98l.88 1.72 1.62-3.43m-2.5 9.92l.88 1.71 1.62-3.43m-2.5 9.92l.88 1.71 1.62-3.43m-2.5 9.92l.88 1.72 1.62-3.44"/><path d="M186.91 146.2l-1-.41L187 144a.24.24 0 00-.07-.34.26.26 0 00-.35.07l-1.22 1.9L184 145a.26.26 0 00-.33.15.25.25 0 00.14.32l1.32.52-1.22 1.89a.26.26 0 00.08.35.22.22 0 00.13 0 .25.25 0 00.21-.12l1.28-2 1.14.45h.09a.24.24 0 00.23-.15.25.25 0 00-.16-.21z" fill="url(#linear-gradient-59)"/><path class="cls-66" d="M190.51 108.93l6.62-3.56m-6.62 5.75l6.62-3.56m-6.62 9.72l6.62-3.56m-6.62 5.75l6.62-3.56m-6.62 9.72l6.62-3.56m-6.62 5.75l6.62-3.57m-6.62 9.1l6.62-3.56m-6.62 5.75l6.62-3.56m-6.8 10.17l6.63-3.56m-42.59 18.24l24.54-14.24m-24.54 17.4l24.54-14.25m-24.54 17.4l24.54-14.25m-24.54 17.4l24.54-14.25m11.42-7.7l6.63-3.57"/><path class="cls-9" d="M364.05 136.5l20.43-12.93m156.29 250.9l35.02-20.72"/><path class="cls-14" d="M392.71 401.76l78.15-39.84a26.82 26.82 0 0126.78 0l78.47 38.69v8.87c0 3.06-.47 6.36-3.47 8.13l-74.26 43.68a26.84 26.84 0 01-27.19 0l-75-44.07c-2.87-1.69-3.45-4.11-3.45-7.61z"/><path class="cls-1" d="M396.21 394.68l74.65-43.06a26.82 26.82 0 0126.78 0l74.94 43.42a7.1 7.1 0 01.06 12.27L498.38 451a26.82 26.82 0 01-27.19 0l-75-44.07a7.09 7.09 0 01.02-12.25z"/><path class="cls-9" d="M447.98 120.04l130.16 72.6"/><path d="M340.76 386.89a14 14 0 00-5.23-.31 1.46 1.46 0 00-.47-.13c-4.27-.44-9.13 3.07-11.47 5-.63.52-1.19 1.05-1.73 1.58-7 2.17-20.72 10.51-21.69 11.49-.22.22.05.46.68.72-1.16.68-1.8 1.25-1.92 1.62 0 .09.45.22 1.25.38l-3.46 2.6s-10 6.24-15.7 9.2l.27.69a3 3 0 01.36.57.71.71 0 01.44-.48c4.54-2.05 18.18-9.4 18.18-9.4l4.37-2.5c1 .14 2.15.27 3.25.4L302.7 413s-10.69 6.84-15.59 9.86c.89.07 1.78.18 2.67.29 3.78-2.61 16.61-9.65 16.61-9.65l6.91-4.67a12.39 12.39 0 003.1 0 5.2 5.2 0 001.75-1.38 11.84 11.84 0 003.06-.37l.24-.09a.88.88 0 00.4.15 5.37 5.37 0 003.07-.92 9 9 0 003.18-.59 20.74 20.74 0 007-10.77.17.17 0 000-.11c-.23-.59-1.93-1.19-4.08-1.61l.12-.11c2.32.18 6.29-.42 7.24-1.07l2-1.34a4 4 0 00.75-.32 3.38 3.38 0 001.26-1l.16-.11h-.1c.55-.89-.04-1.66-1.69-2.3zm-12.32 5.78a24.46 24.46 0 00-2.66-.16l.67-.42c.6-.34 1.26-.67 1.94-1a1.84 1.84 0 00.26.24 5.93 5.93 0 001.22.61c-.4.23-.94.5-1.43.73z" fill="url(#linear-gradient-60)"/><path class="cls-40" d="M278.05 384.57v14s2.56 21 2 25.14c-.21 1.59-5.21.19-5.59 2.37.95 1 9 1.14 8.6-.76-.38-3.8-1.09-26.75-1.09-26.75l2.29-16.19zm8.45-.29l.95 9.88s2.46 18.3 3.79 23.61c.47 1.88-5.41 5.5-4 7.74 2.59-1.28 6.05-3.94 6.75-5.56-1.61-3.89-2.64-26-2.64-26l.64-11.5z"/><path class="cls-42" d="M277.89 340.24V347c0 2.19 5.51 5.89 7.44 3.12v-6.33z"/><path class="cls-42" d="M283.73 353.39c-.63-.27-1.2-.94-1-1.6a12.63 12.63 0 00.22-3.39l4.52-1.53s-.42 5.55 0 6.52-2.67.44-3.74 0z"/><path class="cls-78" d="M292.34 377.72l-14.29.16c-2 2.4-3.17 11.54-2.7 12.68.63 1.54 17.44 1.88 17.93.87.72-1.55.72-9.11-.94-13.71z"/><path d="M277.16 353.39c2.22-2.53 11.47-3.17 13.46-.46 3.75 5.09 5.06 27.19 4.63 29.49-.59 3.15-19.95 3.12-21.88-.63s2.7-27.16 3.79-28.4z" fill="url(#linear-gradient-61)"/><path d="M282.42 336.38c2.3-.83 6.25.69 7 2.94 2 5.88-1 8.44-2.15 9.2a12.36 12.36 0 01-4.18 1.52c-2.4-6.32-5.12-4.44-5.46-7.13s1.37-5.3 4.79-6.53z" fill="url(#linear-gradient-62)"/><path class="cls-42" d="M280.74 346.25c-.17.77-.7 1.31-1.2 1.2s-.76-.81-.59-1.58.7-1.31 1.19-1.2.77.82.6 1.58z"/><path d="M285.7 341.39c0 1.92.75 2.74 1.3 4.14a18.38 18.38 0 011.26 5.07c.23 2.51-.22 5.14.17 7.6a6.8 6.8 0 002 4.2c-.58-4.12.76-8.17 1.17-12.31.45-4.47.76-12.79-3.6-13-1.29-.09-2.33 1.91-2.3 4.3z" fill="url(#linear-gradient-63)"/><path class="cls-42" d="M271.22 379.07c0 1.46.68 2.65 1.52 2.65s1.52-1.19 1.52-2.65-.68-2.66-1.52-2.66-1.52 1.19-1.52 2.66z"/><path d="M277.16 353.39A72.1 72.1 0 00272 365.1c-1.68 4.74-3 9.5-2.81 11.87.25 2.15 5.59 3.42 7 3s2.91-23.11.97-26.58z" fill="url(#linear-gradient-64)"/><path class="cls-42" d="M203.81 143.61s-4.63-4.37-5.74-3.61 1.88 2.14 1.88 2.14-2.5 1.24-1.25 2.49a8.68 8.68 0 003.83 1.72z"/><path fill="url(#linear-gradient-65)" d="M618.06 264.04l-2.07-6.25-5.96 5 4.61 7.23 3.42-5.98z"/><path d="M638.15 255.89l32.44 18.94a1.31 1.31 0 002-1.13V216a2.76 2.76 0 00-1.38-2.38l-32.44-18.66a1.3 1.3 0 00-1.94 1.13v57.44a2.77 2.77 0 001.32 2.36z" fill="url(#linear-gradient-66)"/><path class="cls-36" d="M648.61 217.94c2 .49 4.48 3.4 5.75 6.79 1.63 4.37 1.57 9.23-.17 12.11a4.31 4.31 0 01-3.64 2.32 5.14 5.14 0 01-3.11-1.2l.12-.47.54-2.07c.49-1.87 1-3.79 1.45-5.71a7 7 0 00.12-2.27c-.22-2.2-.48-4.44-.73-6.6l-.3-2.6v-.3m-.55-.58c0 .31.05.63.09.94.34 3.06.72 6.13 1 9.19a6.87 6.87 0 01-.11 2.1c-.64 2.62-1.33 5.19-2 7.78-.06.25-.13.51-.2.77a5.82 5.82 0 003.68 1.52 4.76 4.76 0 004.07-2.57c1.82-3 1.91-8 .21-12.54-1.48-4-4.51-7.18-6.77-7.19z" id="_Group_" data-name="&lt;Group&gt;"/><path id="_Path_33" data-name="&lt;Path&gt;" d="M647.14 217.15c.38 3.37.75 6.59 1.13 9.93l-6-5.49c.99-2.86 2.6-4.29 4.87-4.44z" fill="url(#linear-gradient-67)"/><path id="_Path_34" data-name="&lt;Path&gt;" class="cls-88" d="M646 237.32c-3.17-3-5.08-9.8-4-14.44l6.27 5.76z"/><path d="M712.33 279.14a13.77 13.77 0 00-2.54-.07c.37-.89-1-1.48-3.1-1.35s-4.52 1-5.07 2c-.35.59 0 1.06.92 1.3a6.18 6.18 0 00-1.18.92c-.84.87.63 2 1.15 2.25a3 3 0 00.92.37l-.68.32a30.47 30.47 0 00-3.27.23 1.64 1.64 0 00-.6.25h-2.59a5.55 5.55 0 00-2.28.5l-.44.21-.88.41a71.06 71.06 0 00-9.21 4.28 21.43 21.43 0 00-2.61 1.88l-7.34 2.92 3.43.82a1.09 1.09 0 00-.31.43c-5.4 3-12 6.67-12.05 6.68a27.42 27.42 0 004.43.39l-.73.55-13.87 8.44c-.46.27-.75.45-.82.5l-.58.39a2.89 2.89 0 01.13.78c0 .47 0 .94.08 1.4a2.44 2.44 0 00.54.11c.87.06 1.43-2.23 1.86-2.58.08-.06.61-.36 1.42-.82 3.94-2.18 14.66-8 14.66-8l1.13-.65c1.39.06 2.81.1 4.12.13l-16.11 7.79-.39.19-3.21 1.71.66.1 1-.42c-.45.63-.57 1.27.49 1.43.77.11 2.35-2.26 2.9-2.6l.84-.4c3.29-1.49 15.12-6.64 17.66-7.74a11.05 11.05 0 002.11-.09c4-2 11.05-7.78 14-10.26 1-.4 6.73-2.6 7.65-3.47.34-.33 4.66-4 4.88-4.18a.7.7 0 00.09-.76 5.91 5.91 0 00-2.35-.22c.21-.16.28-.27.06-.31s-.81-.06-1.64-.08h.06a10.13 10.13 0 003.84-.38l3.48-2.66a4.6 4.6 0 002.82-1.09c.57-.93-1.32-1.26-3.48-1.55zM688 291.83c-.81.45-2.89.72-4.49 1.32l2.28-1.82 5.79-2.4z" fill="url(#linear-gradient-68)" opacity=".67"/><path d="M721.49 297.24l-.31.13c.29-.22.43-.37.39-.43a9.42 9.42 0 00-3.67-1.47l.87-.62a20.68 20.68 0 002.08 0 12.16 12.16 0 005-1.6 10.56 10.56 0 001.58-.83c2-1.31 2.3-2.83-1.84-3.21a17 17 0 00-9.29 1.83c-.86.52-1.3 1.08-2.13 1.58-.68.41-1.75.77-1.15 1.13a8.64 8.64 0 002.92.89c-.16.09-.33.18-.5.29-3.45-.72-7.3-1.18-8.71-.81a8.14 8.14 0 00-.88.34c-1.5.33-12.81 2.83-15.56 4.14-2.13 1 0 2.4 1.37 3.1-3.06 1.67-5.67 3.17-6.74 3.95-.2.14.43.39 1.56.68l-10.31 6.25c-1.48.89-11 6.25-13.25 8.3-.12.11.07.22.39.31l-1.14.72.12.05a10.37 10.37 0 005.31.11c.67-.21-.83-.42-2.22-.61a5.14 5.14 0 00.59 0c.31 0 12.49-6.54 12-6.25-2.84 1.57 12.42-6.61 13.45-6.49s-19.48 18.58-19.48 18.58.58-.23.78-.13l-1.08.53c.06 0-.29.43-.27.43.55.2 1.21-.18 3.27-.83.77-.24 24.35-16.89 26.66-18.32a11 11 0 002.63.19 16.53 16.53 0 011.78-1.53 15.05 15.05 0 001.52-.22c.28-.06.53-.12.76-.19l.21.24s13-3.28 14.15-4.22.46-5.33-.86-6.01zM695 298.88l3-.65c-1.08.56-2.19 1.14-3.29 1.73zm13.47 6.62c2.07-1.39 4.45-2.88 6.61-4.23l.22 2z" fill="url(#linear-gradient-69)" opacity=".67"/><path d="M685.55 283.29L718 302.23a1.3 1.3 0 002-1.13v-46.71a2.73 2.73 0 00-1.38-2.38l-32.43-18.66a1.3 1.3 0 00-1.95 1.13v46.43a2.77 2.77 0 001.31 2.38z" fill="url(#linear-gradient-70)"/><path class="cls-88" d="M698.89 247.19l-9.83-5.8a.55.55 0 00-.83.48v9.24a1.19 1.19 0 00.59 1l9.82 5.67a.55.55 0 00.83-.48v-9.1a1.18 1.18 0 00-.58-1.01zM669.56 225l-3.29-2a.55.55 0 00-.83.47v2.24a1.15 1.15 0 00.58 1l3.29 1.91a.56.56 0 00.83-.48V226a1.18 1.18 0 00-.58-1zm0 6.55l-3.29-2a.55.55 0 00-.83.48v2.23a1.18 1.18 0 00.58 1l3.29 1.9a.55.55 0 00.83-.48v-2.11a1.18 1.18 0 00-.58-1.02zm0 6.58l-3.29-2a.55.55 0 00-.83.48v2.23a1.18 1.18 0 00.58 1l3.29 1.9a.55.55 0 00.83-.48v-2.11a1.16 1.16 0 00-.58-1.02z"/><path class="cls-34" d="M664 215l-23.37-13.64a.55.55 0 00-.83.47V204a1.14 1.14 0 00.59 1l23.37 13.53a.56.56 0 00.83-.48V216a1.18 1.18 0 00-.59-1zm0 38.53l-23.37-13.65a.55.55 0 00-.83.48v.23a1.18 1.18 0 00.58 1l23.37 13.52a.55.55 0 00.83-.48v-.11a1.16 1.16 0 00-.58-.99zm0 5.47l-23.37-13.64a.55.55 0 00-.83.48v.16a1.16 1.16 0 00.58 1l23.37 13.53a.56.56 0 00.83-.48V260a1.18 1.18 0 00-.58-1zm0 5.4l-23.37-13.65a.55.55 0 00-.83.48v.23a1.18 1.18 0 00.58 1L663.75 266a.55.55 0 00.83-.48v-.11a1.16 1.16 0 00-.58-1.01zm50.47-8.93l-9.83-5.8a.56.56 0 00-.83.48v9.24a1.17 1.17 0 00.59 1l9.82 5.67a.55.55 0 00.83-.48v-9.12a1.18 1.18 0 00-.58-.99zm-15.58 7.87l-9.83-5.8a.55.55 0 00-.83.48v9.23a1.19 1.19 0 00.59 1l9.82 5.68a.56.56 0 00.83-.48v-9.12a1.16 1.16 0 00-.58-.99z"/><path d="M714.47 271.62l-9.83-5.8a.55.55 0 00-.83.48v9.24a1.16 1.16 0 00.59 1l9.82 5.68a.56.56 0 00.83-.48v-9.12a1.16 1.16 0 00-.58-1z" fill="url(#linear-gradient-71)"/><path class="cls-66" d="M687.07 271.82l27.98 15.45m-27.98-11.75l27.98 15.46m-27.98-11.75l27.98 15.45m-9.23-41.74l6.5 4m-21.72 4.22l6.5 4m-6.5-1.42l6.5 4m-6.5-1.42l6.5 4m8.72-15.38l6.5 4m-6.5-2l6.5 4m-6.5-2l6.5 4"/><path class="cls-42" d="M652 291.72l-1-9.12 4.44 1.22-.33 7.9s-1.07 13.48-1.37 18.56c-.62.29-1.23.58-1.85.85 0-4.36.11-19.41.11-19.41zm6.87-3.33l-1.22-9.12 4.22 1.84.08 7.72s-3.42 15.11-4.2 19.1a18.53 18.53 0 00-1.87.35c.46-3.03 2.99-19.89 2.99-19.89z"/><path d="M649.48 266.35c.49-1.49 1.83-2.38 1.9-3.42l-1.7-12a8.82 8.82 0 01-1.55.33l.24-1.49a1.61 1.61 0 011.18-1.38c5.26-1 8.73-2.26 10.56-1.58a2.42 2.42 0 011.21 1.27c.11.49 1.4 8.59 1.55 9.31.4 1.92-1.3 7.33-1.61 8.28.85 5.54 2.76 18.47 2.17 23.18-.1.75-15 2.25-15.68 1.55.07-.08 1.25-22.52 1.73-24.05z" fill="url(#linear-gradient-72)"/><path class="cls-40" transform="rotate(16.23 650.344 270.676)" d="M645.39 266.84h9.52v7.43h-9.52z"/><path class="cls-42" d="M648.36 273.76c.2 1.27 1 2.2 1.69 2.09s1.15-1.25.94-2.52-1-2.21-1.7-2.09-1.14 1.25-.93 2.52z"/><path d="M648.13 251.24l.16-1a2.93 2.93 0 012.83 3.68l-2.18 8.33 1.29 9.5-1.92.17a32.07 32.07 0 01-2-10.51 39 39 0 011.82-10.17z" fill="url(#linear-gradient-73)"/><path class="cls-40" d="M651.87 311.13c.62-.27 1.23-.56 1.85-.85-.06 1.06-.09 1.76-.07 1.89.11.78 2.67 5.56 1.89 5.56-1.08 0-2-1.2-2.66-2.49l-.12 1h-.67l-.22-4zm4.01-2.85a18.53 18.53 0 011.87-.35c-.1.51-.16.85-.16.94 0 .79 1.86 5.88 1.08 5.77-1.06-.15-1.81-1.48-2.27-2.84l-.27 1-.66-.09.35-4c.01-.04.03-.2.06-.43z"/><path class="cls-42" d="M655.76 249a1.26 1.26 0 00.87-1.4 10.9 10.9 0 01-.19-3l-3.24-.66s-.13 3.84.46 4.69 1.16.73 2.1.37z"/><path class="cls-95" d="M646.43 236c.79 2 2.76 3.15 4.39 2.51s2.3-2.8 1.5-4.83-2.76-3.15-4.39-2.51-2.3 2.83-1.5 4.83z"/><path class="cls-42" d="M658.07 236.12a15.2 15.2 0 011 7.66l-.08.64c.14 1.26-5.2 2.64-7-.54l-.43-3.73z"/><path class="cls-95" d="M654.35 233.17c2.13.26 4.09.64 4.83 2.6.44 1.18-.2 2.59-.84 2.67l-.21-1.77c-1.28 2.61-5 5.22-6 5.25-1.52.05.07 1.76 1.06 3.1.36.49-3.5-2.12-4.06-4.44-1.22-5.1 2.21-7.78 5.22-7.41z"/><path class="cls-42" d="M651.38 243.14c.22.65.74 1.06 1.17.92s.58-.79.36-1.44-.75-1.07-1.17-.93-.58.79-.36 1.45z"/><path d="M136.16 326.2l5.16-4.75c1.76.27 3.05.45 3.14.43a64.9 64.9 0 007.8-4.85l2.13.73 7.12-3-2.49-.86 3-2.78a4.94 4.94 0 011.38-1.08c1-.49 2-1 2.9-1.41a2.4 2.4 0 001-1.22c.47-.26 1.06-.55 1.32-.7 0 0 .46-.62.29-.8a18.36 18.36 0 00-4.46-.73 9.4 9.4 0 01.88-.57 6.66 6.66 0 003.06 0l2.63-1.59a4.87 4.87 0 003.7-1.25c.74-.64-.68-1.68-2.53-2.37a14 14 0 00-6.65-.28c-3.89.71-6.88 2.63-5.22 4a2.47 2.47 0 00.92.51 4.2 4.2 0 001.56.15l-.28-.17a4.39 4.39 0 00.72.35c-.49.23-1.32.61-2 .85-1.76-.13-3.7-.25-5.68-.32-2.62-.1-3.47.77-3.6.93-3.17 1.6-18.55 9.4-17.69 9.44l1 .14c-.47.45-.43.85.19 1a2.83 2.83 0 00.6 0c-2.74 1.68-5.28 3.29-5.34 3.3.08.17-21.94 10-21.94 10l.48.21.59-.23c-.58.79-.86 1.73.35 2.05.78.21 2.22-2.48 2.76-2.84s17.81-4.06 22-5.91l-2.49 3.16-13 11.41.61.17.65-.4a2 2 0 002 1.92c.94.09.2-2.52.44-2.91s12.99-9.73 12.99-9.73zM162 303.28a1.81 1.81 0 00.47.43c-.27-.16-.47-.29-.47-.43zm-16.11 7.94l3.9-2.15-2.44 2c-.42.09-1.15.27-1.94.48z" fill="url(#linear-gradient-74)"/><path d="M120.2 333.62c-.3-.8-2.46-22.76-2.46-22.76L115.46 299l-2.2-.11.58-4.14-4.69-1.75.14 10-2.49 25.36.63.21.15-.66c.56 1.66 1.51 3.47 2.84 3.6.85.08-1.42-5.35-1.46-6.21 0-.71 2.53-15.34 3.4-20.32l2.08 6.7 4.47 25.67.66.06v-1c1.05 1.46 2.58 3 3.93 2.72.84-.24-3-4.71-3.3-5.51z" fill="url(#linear-gradient-75)"/><path d="M117.94 263.15a15.16 15.16 0 00-.09 2.75c.36 1.12.18 7.1.63 7.76l1.82 9.18-3.63.36-1.33-7.2c-1-1.47-.4-9.09.45-13.2z" fill="url(#linear-gradient-76)"/><path transform="rotate(11.59 117.794 283.754)" fill="url(#linear-gradient-77)" d="M113.62 279.53h8.3v8.3h-8.3z"/><path class="cls-42" d="M112.08 264.41a1.37 1.37 0 001-1.52 12.24 12.24 0 01-.21-3.24l-2.25.18A16.93 16.93 0 01110 263c-.47 1 1.07 1.83 2.08 1.41z"/><path d="M106.87 280.68a2.34 2.34 0 00.45-1.1l-1.86-13.2 11.25-3.57s2 3.43 1.9 4.69c-.3 3.13-1 7.29-1.06 10.37a19.66 19.66 0 01-10.68 2.81z" fill="url(#linear-gradient-78)"/><path class="cls-40" d="M105.26 283.3a27.51 27.51 0 012-4.21c3.76.1 7.11.71 10.3-1.22a14.68 14.68 0 00.09 1.95c.17 1.35 1.67 13.45 1 20-.14.2-12.81 1.52-13.57.76.04-.04-.38-15.58.18-17.28z"/><path d="M103.79 267.33a2.45 2.45 0 011.55-3.12c5.42-2.09 11.09-3.18 11.82-2.63a5.08 5.08 0 01.78 1.57c0 .54-14.18 4.39-14.15 4.18z" fill="url(#linear-gradient-79)"/><path class="cls-42" d="M115.19 251v8.54c0 1.3-6 2.07-7.5-1.37v-3.84z"/><path class="cls-40" d="M111.54 248.57c2.27.55 4.65 1.89 4.89 3.34.44 2.66-.54 3.69-1.24 3.69v-3.08c-1.72 2.65-5.06 2.58-5.87 3.26a2.91 2.91 0 00-1.08 2.4c.07 1.32.64 1.48 1.71 2a1.73 1.73 0 01-1.38.31 3.7 3.7 0 01-1.34-.57c-3-1.94-3.15-6.56-1.1-9.34a5.28 5.28 0 015.41-2.01z"/><path class="cls-42" d="M107.09 257.68c.16.74.67 1.25 1.14 1.15s.73-.78.57-1.52-.67-1.24-1.14-1.14-.73.83-.57 1.51zM103 290.21c0 1.4.65 2.53 1.45 2.53s1.45-1.13 1.45-2.53-.65-2.54-1.45-2.54-1.45 1.14-1.45 2.54z"/><path d="M103.85 266.53H107l-.67 13.41.55 10.6-4.71.63c-.78.28 1.68-24.64 1.68-24.64z" fill="url(#linear-gradient-80)"/><path class="cls-40" d="M672.87 325.42s-.24.94-.23.94c.71.18 5-.1 4.72.58-.75 1.82-5.33 1.5-6 1.23l-.14-.06-.06-2.69zm-9.46-5.42s-.25.93-.24.93c.71.19 5-.09 4.73.58-.75 1.83-5.33 1.51-6 1.23l-.15-.06-.06-2.68z"/><path class="cls-40" d="M675 285c.14 1.82.13 10.58-.47 19.45-.67 9.81-.78 20.71-1 21.62a2.62 2.62 0 01-2.8-.47s-1.34-17.88-1.61-21c-.32-3.58-.94-15.87-1.87-15.87s-2.2 20.38-2 16.49c0-.73-1 15.48-1.19 15.64-.64.57-2.88.36-3-.39-.88-4.74-.41-18-.41-20.15s-.06-15.94-.06-15.94z"/><path class="cls-42" d="M677.62 282.27c-.73 1-1.77 1.39-2.31 1s-.39-1.53.34-2.49 1.77-1.38 2.32-1 .39 1.54-.35 2.49zm-11.53-26.12h4.68c0-.9-.1-2.8-.1-2.8l-4.26-.08a10.31 10.31 0 00-.34 2.78s.02.08.02.1z"/><path d="M674.12 246.84a9.63 9.63 0 01-.14 2.09c-.31 1.67-.14 3.55-1.75 4.45a7.49 7.49 0 01-7.38-.39c-.92-.61-.56-1.6-.56-2.58 0-1.22-.37-2.48-.38-3.75 0-3 1.8-5.79 4.76-5.95 3.63-.2 5.33 2.97 5.45 6.13z" fill="#a8b2e5"/><path class="cls-40" d="M683.86 270.17c-.31-2.18-8.66-12.87-8.77-13-2.29-2.29-10.64-2.67-14-1.47a2.38 2.38 0 00-1.13.87c-1.4 2-5.88 8.68-6.28 11.7-.33 2.59 3.05 4.92 5 6-.22 4.15-1 8.89-.83 10.73s19 3.52 18.83 2.65c-.4-1.67 0-4.92-.16-7.37l1.94 1.82s5.72-9.75 5.4-11.93zm-26.13-2.33l1.49-2.06c-.12 1.4-.23 2.85-.32 4.31zM676 268l2.71 4.07-2.39 6.16c-.17-3.37-.25-6.99-.32-10.23z"/><path stroke-dasharray="2 4" opacity=".57" stroke="#fff" fill="none" stroke-miterlimit="10" d="M379.33 167.21l84.74 30.27 46.33-93.97-104 43.03-7.33-101.36 103.67 34.67V1.52l-75.17 101.62 61.08 3.42L387.4 21.52l103.67 32.16-106.59 65.48 77.26 48.46 36.65-4.79-14.66 29.81-61.99 19.79-18-57.78 32.98 20.07 23.85-36.04-37.87-20.39-42.39-34.44 40.98-19.69 38.28-51.48"/><path d="M516.45 377.87l-.31.13c.28-.22.43-.37.39-.43a9.42 9.42 0 00-3.67-1.47l.87-.62a20.74 20.74 0 002.08 0 12.05 12.05 0 005-1.6 10.56 10.56 0 001.58-.84c2-1.3 2.31-2.82-1.83-3.2a17.07 17.07 0 00-9.3 1.83c-.86.52-1.29 1.08-2.13 1.58-.67.41-1.74.77-1.14 1.13a8.5 8.5 0 002.91.89l-.5.28c-3.44-.71-7.29-1.17-8.7-.8a6.42 6.42 0 00-.88.34c-1.51.33-12.81 2.83-15.56 4.14-2.13 1 0 2.4 1.37 3.1-3.06 1.67-5.68 3.17-6.75 3.95-.2.14.44.39 1.57.68l-10.31 6.25c-1.48.89-11 6.24-13.26 8.3-.12.11.07.22.4.31l-1.14.72.11.05a10.53 10.53 0 005.32.11c.67-.21-.84-.42-2.23-.62a3.7 3.7 0 00.6 0c.31 0 12.48-6.54 11.95-6.25-2.84 1.57 12.42-6.61 13.45-6.49s-26.71 13.53-26.71 13.53.58-.24.78-.13l-1.08.52c.06 0-.29.43-.27.44.55.2 1.21-.18 3.27-.83.77-.25 31.58-11.85 33.89-13.27a10.91 10.91 0 002.62.19 17.94 17.94 0 011.79-1.54 11.14 11.14 0 001.52-.22 6.89 6.89 0 00.75-.18l.21.23s8.26-3.28 9.4-4.21 5.25-5.32 3.94-6zM490 379.51l3-.65c-1.08.56-2.19 1.14-3.29 1.73zm13.48 6.62c2.06-1.39 4.44-2.88 6.6-4.23l.22 2z" fill="url(#linear-gradient-81)"/><path class="cls-36" d="M393.81 322.3a9.23 9.23 0 01-.66-2.23.26.26 0 00-.09-.14 1.45 1.45 0 00-.81-1.55c-.69-.24-1.76.22-2.34 1.47a.34.34 0 000 .35c-.52 1.46-.67 2.75.34 3 .75.2 1.74-.46 2.32-1.59a10.42 10.42 0 00.37 1c.17.28 1.11.23.87-.31zm-1.81-1.53c-.21.64-.75 1.53-1.26 1.68-.69.21-.08-1.49.12-2a.34.34 0 000-.33c.23-.48.74-1.08 1.09-1s.2 1.13.05 1.65zm2.07 2.6a44.27 44.27 0 01-5.44 3c-.45.21 0 .65.29.53a44.64 44.64 0 005.59-3.11c.35-.2-.19-.59-.44-.42zm-1 7.69a1.67 1.67 0 00-1.81.36c.42-1.36 2.13-3 1.72-4.32a.79.79 0 00-1.08-.48 2.83 2.83 0 00-1.42 1.71c-.15.39.52.57.66.22.22-.57 1.14-2 1.18-.9a4.26 4.26 0 01-.76 1.83c-.57.93-1.29 2-1 2.91.05.17.42.43.62.13.42-.62 1.08-1.22 1.51-1 .09 0 .36.15.49-.06a.26.26 0 00-.11-.4zm5.71-11.26l-2.64 1.64c-.34.21.19.61.45.45l2.63-1.64c.35-.25-.22-.61-.44-.45zm11.22-6.54a11 11 0 01-4.21 2.76l-4.12 2c-.45.22 0 .65.3.53l4.58-2.21a10.49 10.49 0 004-2.71c.23-.35-.37-.63-.55-.37zm-4.51-3.62c0-.29-.72-.35-.68.08a33.62 33.62 0 01.08 3.64l-1.4.87c.43-1.16.86-2.31 1.28-3.47.15-.39-.52-.57-.65-.21l-1.6 4.34c-.15.38.35.45.55.33l1.8-1.12c0 .41-.05.83-.08 1.25s.67.42.7.06a38.3 38.3 0 000-5.77zm4.92-1.19c.19-.31-.35-.43-.48-.37l-1.53.75-.66.32c-.13.06-.74.24-.62.44-.12-.2-.85-.13-.63.22s.7.27 1.22 0l1.53-.74c-.48.81-.93 1.65-1.34 2.5a10.74 10.74 0 00-1 .62c-.35.24.19.62.45.45l.06-.05c-.26.58-.5 1.17-.73 1.76-.15.39.51.57.65.22.34-.89.72-1.77 1.14-2.63.24-.14.49-.27.74-.39.45-.21 0-.64-.29-.52.47-.87.96-1.74 1.49-2.58zM407.1 322l-1.77 1.18-.41.3a.68.68 0 00.07-.29 5.87 5.87 0 01.37-.59 10.75 10.75 0 001.73-3.3c.22-.88.13-1.7-.41-1.9s-1 .61-1.62 1.28c-.26.29.31.62.57.35s.67-1.15.86-.88-.2 1.5-.41 2a11.48 11.48 0 01-1 1.67 6.56 6.56 0 00-.88 1.41c-.26.75.18 1.07.65.95a4.5 4.5 0 001.11-.66l1.55-1c.39-.3-.15-.68-.41-.52zm7.2-17.84c-2.56 4.88-3.17 10.37-1.6 13.64.11.22.82.18.63-.22-1.52-3.16-.83-8.52 1.62-13.21.18-.37-.46-.59-.65-.21zm3.57.31c-.08 1.56-.17 3.11-.28 4.67l-.12.05a14.29 14.29 0 01-1.94 1.27q1.07-2.46 2.23-4.87c.17-.36-.48-.59-.66-.22q-1.32 2.76-2.52 5.55c-.27.21.16.57.39.47a14.26 14.26 0 002.58-1.49l-.15 2.07c0 .34.67.43.7.06q.27-3.78.47-7.51c.01-.32-.68-.4-.7-.05zm3.04 1.61c.15-.26.29-.51.4-.73a4.57 4.57 0 00.77-2.15c-.07-1.15-1.44-.81-2.13.32s-.18 2 .54 2l-.12.2c-.22 0-.44.11-.32.35a.41.41 0 00.07.11c-.7 1.31-1.46 2.74-.6 3.42.61.47 1.83 0 2.45-1.33.76-1.67-.46-1.73-1.06-2.19zm-.41-1.18c-.37.15-.12-.76 0-1 .2-.39.84-1.11.88-.49a3.64 3.64 0 01-.58 1.53.33.33 0 00-.3-.04zm.41 3.74c-.59.7-1.25.61-1.05-.32a7 7 0 01.78-1.79c.32.15.65.27.78.64a1.66 1.66 0 01-.51 1.47zm4.46-4.36a8.34 8.34 0 00-.56-2.63c-.39-.93-1-1.65-1.39-2.53-.1-.22-.82-.17-.63.22.38.77.86 1.41 1.23 2.18a7.67 7.67 0 01.66 2.77 15.75 15.75 0 01-1.22 6.6c-.15.38.51.57.66.21a16.17 16.17 0 001.25-6.82zm12.79-13.69q-4.76 2.76-9.5 6a.27.27 0 00-.13.19c.05 2.64.09 5.29.14 7.93l-1.85-2.28c-.17-.21-.83 0-.54.35l2.49 3.06c.06.07.62.2.61-.14l-.09-5v-2.49a3.64 3.64 0 010-1.23c.15-.3.75-.59 1-.74 2.78-1.86 5.56-3.58 8.34-5.2.37-.2-.22-.6-.47-.45z"/><path class="cls-36" d="M435.37 295.36a.88.88 0 00-1.1-.28.34.34 0 00-.23.08l-.06.06a2.7 2.7 0 00-.87.83.32.32 0 00-.06.18 3.67 3.67 0 00-.88 2.76c.29.8 1.33.73 2.11 0a9.29 9.29 0 00.49-.95 12.81 12.81 0 010 2.39 4.86 4.86 0 01-2.61 3.29h-.14l-.34.24c-.37.25.22.57.44.45a6.07 6.07 0 003.21-3.36 8.27 8.27 0 00.18-2.58v-1.9a1.67 1.67 0 00-.14-1.21zm-1.64 2.9a1.19 1.19 0 01-.39.27.45.45 0 01-.54-.34 2.33 2.33 0 01.35-.92 7.31 7.31 0 011.31-1.62.2.2 0 01.24 0v.81a3.76 3.76 0 01-.97 1.8zm-40.43 67.56a9.77 9.77 0 00-1.08.73 45 45 0 00.38-6.9c0-.39-.31-.93-.57-.42q-1.89 3.79-3.65 7.9c-.22.52.29 1.23.53.67 1-2.36 2-4.63 3.12-6.83a19.77 19.77 0 01-.35 4.83 7.66 7.66 0 01-1.49 2.64c-.45.5-.91 1-1.37 1.65-.28.38.15 1.22.42.86a15.4 15.4 0 014.35-4.15c.34-.19-.04-1.12-.29-.98z"/><path class="cls-36" d="M392.15 373.89a8.28 8.28 0 01-1.66 1c.52-1.68 1.59-3.54 1.15-4.87s-1.71.58-2.53 1.93c-.3.49.16 1.27.42.86s.67-1.07 1-1.55c.18-.23.28-.45.42-.34s0 .54-.16 1.12a17.34 17.34 0 00-1.12 3.35c-.06.49.18.79.37.74a7 7 0 002.39-1.23c.37-.3-.03-1.2-.28-1.01zm4.76-12.68a20.67 20.67 0 00-3.37 6.62c-.58 2-.82 4.3 0 4.77s2.13-1.6 2.32-3.62c.15-1.66-.76-2.24-1.51-.9-.3.53.17 1.29.42.86.45-.82.32.38.14 1s-.79 1.58-1 1.6c-.75.06.24-3.23.52-4a20.08 20.08 0 012.95-5.43c.24-.42-.19-1.26-.47-.9zm3.09-1.74a6.3 6.3 0 01-.76 1.08c.42-1.2 1-2.42.85-3.52-.08-.5-.31-.79-.57-.81s-.79.55-1.12.5-.26 1 0 1a.9.9 0 00.59-.14c.1-.06.26-.24.36-.24s.17-.08.14.2a4.37 4.37 0 01-.12.52 27.86 27.86 0 00-1 3.32c-.09.56.22.79.44.7a3.89 3.89 0 001.66-1.79c.22-.49-.25-1.29-.47-.82zm3.93-2.42c-.22-1-.79-1.45-1.48-.8-.88.83-1.3 2.87-1.48 4.45s-.13 2.47.4 3a.74.74 0 00.25.05c.38 0 .4.75.07 2.25-.21.32-.62.33-.83.42l-2.2.93c-.32.14 0 1.09.29 1 .67-.28 4.51-1 4-4.22-.17-1.15-.77-1.06-1.25-1.39s-.21-1.94.05-3.14 1.26-3.7 1.61-2.19c.14.43.75.41.57-.36zm1.41-.22c-.11.27-.4.83-.5.61s.27-1.16.41-1.39a4.8 4.8 0 00.85-1.89 1.24 1.24 0 00-.32-1.21c-.32-.23-.67.12-1.07.71-.3.42.15 1.24.42.86a4.42 4.42 0 01.36-.51c-.07.11-.15.31-.21.43-.19.41-.43.66-.62 1.06a4.13 4.13 0 00-.41 2.09c.14 1.2 1 1.42 1.61-.09.22-.5-.28-1.23-.52-.67zm4.88-9.78a.65.65 0 00-.06.55 1.85 1.85 0 00-1-.71c-.44-.14-.25.95 0 1 1.12.35 1.07 3.23.22 6a7.18 7.18 0 01-1 2.15c-.89.84-.15-2.8.75-3.35.34-.2 0-1.13-.29-1-2.12 1.28-1.83 8.42.25 4.72a15.55 15.55 0 001.54-6.46 4.65 4.65 0 00-.31-2c.1.09.21.11.3 0 .27-.37.68-.76.86-.46a3.07 3.07 0 010 1.69c-.11.58.47 1.08.59.43.53-2.77-.61-4.26-1.85-2.56zm6.13-3.74a36.78 36.78 0 00-2.22 6.16 11.45 11.45 0 00-.74-3.49c-.19-.46-.7-.06-.44.59a13.2 13.2 0 01.56 5.65c0 .39.47 1 .6.3a36.83 36.83 0 012.76-8.54c.22-.47-.26-1.22-.52-.67zm-.99 10.43a51.22 51.22 0 01-9.19 6.43c-.34.17 0 1.11.29 1l1.17-.65c-.07.3.08.79.26.8 1 .1.63 4.36-.15 6.52a5 5 0 01-.53 1.16.44.44 0 01-.81-.23 4.25 4.25 0 01.57-1.66 1.74 1.74 0 01.81-.83c.32-.14 0-1.09-.29-1-.89.39-1.88 2.44-1.71 4.21.12 1.31.88 1.63 1.64.65a8.2 8.2 0 001.28-3.27.75.75 0 00.17.47c.83.75 2.1-.1 3.14-2.34a.84.84 0 00-.11-.74 1.64 1.64 0 00-.7-.62c-.37-.18-.95-.15-.94-1.2 0-2.3 1.71-2.56 2.32-3.08.37-.32 0-1.21-.29-1-.79.69-2.64 1-2.64 3.89 0 2.05 1 1.93 1.64 2.47-.75 1.43-1.66 2.2-2.26 1.66-.1-.09-.18-.08-.23 0a21.37 21.37 0 00.29-2.53c.1-2-.28-3.38-1.12-3.54a52.59 52.59 0 007.68-5.58c.35-.32-.04-1.21-.29-.99z"/><path class="cls-36" d="M415.26 358.12a10.35 10.35 0 01-.88 1.31 5.33 5.33 0 00.22-.94 2.16 2.16 0 00-.13-1.18c-.25-.44-1-.32-1.05 1 0 .33.21.61.39.58-.1.28-.21.54-.3.84a1.22 1.22 0 00.13 1.22c.47.45 1.49-1 2-2 .36-.47-.13-1.25-.38-.83zm5.48-7.23c-.4.36-.8.7-1.2 1 .09-.79.18-1.58.26-2.37.06-.57-.53-1-.59-.43-.11 1.12-.24 2.25-.37 3.38l-.93.75c-.36.28 0 1.19.29 1l.47-.39c-.12 1-.26 2.07-.4 3.11-.08.58.51 1 .59.43.19-1.38.36-2.75.52-4.11.55-.46 1.1-.93 1.66-1.42.37-.3-.04-1.18-.3-.95zm3-1.14c-.29.45-.85 1.36-1.38 2.39.07-1.12.14-2.24.22-3.36 0-.51-.56-.92-.61-.17l-.21 3.27c0 .56-.12 1.25-.17 1.89-.55 1.35-.81 2.6-.16 3 .46.28.65-.47.72-1.46 0-.41.05-.82.08-1.23.11-.25.23-.49.34-.72a27.16 27.16 0 011.59-2.76c.3-.45-.16-1.25-.42-.85zm12.52-7.61c-2.94 2.63-6 6.17-8.82 7.86a4.35 4.35 0 001.13-2.53 1.64 1.64 0 00-.35-1.14c-.18-.27-.43-.32-.62-.55-1.07-1.28-.49-3.63.8-4.74.36-.31 0-1.2-.29-1a6.16 6.16 0 00-1.79 5.38c.21.81.65.72 1 1.22 1.17 1.81-1.58 3.74-2.47 4.32-.38.25.09 1 .23 1 3.6-.41 7.62-5.39 11.5-8.87.34-.3-.07-1.18-.32-.95z"/><path class="cls-36" d="M432.22 336.72c-.73-.59-1.66.68-2.54 2.15-.29.49.17 1.27.42.85a11.57 11.57 0 011.2-1.75c.65-.67 1.09-.27.57 1.34a7.94 7.94 0 01-.64 1.47c-.06-.29-.26-.53-.41-.38a2.92 2.92 0 00-1 1.58 1.87 1.87 0 00.09 1.41c.26.39.6.19 1-.45a14.91 14.91 0 001.36-2.65c.65-1.7.51-3.11-.05-3.57zm2.57-.87l-1.38 5.2a11.82 11.82 0 01.14-2.51c.09-.58-.49-1-.58-.43a9.93 9.93 0 00.15 4.55c.07.21.39.67.55 0l1.71-6.42c.14-.51-.38-1.08-.59-.39zm-4.61 15.35c-.12-.39-.75-.34-.54.36a16.09 16.09 0 01.67 4.29 3.05 3.05 0 01-.79 2.62c-.66.51-.73-.74-.22-1.91.22-.51-.28-1.23-.53-.67-1.25 2.9.18 4.49 1.29 3.33 1.77-1.85.5-6.77.12-8.02zm3.93 1.87c0-.71-.35-.78-.63-.89s-.5-.6-.21-1.72a15.59 15.59 0 01.83-2.3.75.75 0 00-.22-.86c-.07-.08-.15-.12-.22-.08a.37.37 0 00-.13.39c-.66 1.58-1.3 3.47-1 4.82.14.61.41.56.68.82a.57.57 0 00.22 0 1.5 1.5 0 01-.31.84c-.43.7-.89.75-1.18.49s-.43.71-.16.95.84.38 1.39-.14a3.3 3.3 0 00.94-2.32zm5.1-12.25c-.09-.19-.25-.33-.43-.13l-.17.17a8.22 8.22 0 00.1-1.71c.43.14.24-1 0-1-.42-.13-.58.84-.64 1.62l-.16 1.88-.64.68c-.18.19 0 .64 0 .73s.25.32.43.13l.1-.11c0 .32-.06.64-.08 1 0 .56.54.95.58.43l.18-2.12c.24-.26.48-.52.73-.77s.04-.71 0-.8zm4.93-8.82c-.24-1.83-1.38-1.34-2.35-.56-.36.3 0 1.19.29 1a5.9 5.9 0 01.61-.47c.45-.26.5-.29.68.4a3.66 3.66 0 010 1.69c0 .35-.06.69-.1 1a5.34 5.34 0 01-1.7 3.87 5.84 5.84 0 011.33-3.4c.37-.31 0-1.2-.29-1a6.77 6.77 0 00-1.64 4.67c.14 1.65 1.36.57 2.1-.74a7.67 7.67 0 00.8-3.06 18.55 18.55 0 00.27-3.4zm3-4.24c-.7 2.05-.76 4.32-1.44 6.32a44 44 0 01-.49-5.42c0-.46-.63-.81-.61-.17a43.67 43.67 0 00.72 6.87c.05.28.32.79.55.29 1.05-2.25 1-4.84 1.79-7.23.2-.6-.33-1.22-.52-.66zm.41 8.15l-4 4c-1 1-2.61 2-3.58 3.65a.72.72 0 00-.08.47v.11c0 .28.25.63.44.44l.06-.05a.56.56 0 00.14-.45c.34 0 2.31-2 4.15-3.86-.14 1.29-.25 2.57-.35 3.83a4.45 4.45 0 01-.47.41c-.35.27 0 1.18.3 1a.27.27 0 01.08-.07 8.11 8.11 0 00.11 3.11c.62 1.31 1.7-.52 2.48-2.43.22-.54-.29-1.23-.52-.67a11.07 11.07 0 01-.94 2c-.66.94-.61-.32-.56-1.19 0-.48.06-1 .09-1.46a12.23 12.23 0 001.88-2.85c.22-.44-.25-1.21-.52-.67a13.38 13.38 0 01-1.24 2c.07-.87.15-1.75.24-2.63a.63.63 0 00-.35-.68c1.44-1.49 2.74-2.88 3-3.17s-.08-1.11-.36-.84z"/><path class="cls-36" d="M443.22 345.83a21.22 21.22 0 00-.94-1.91c-.21-.39-.74 0-.44.59l.42.79a6.35 6.35 0 00-1.9 3.15c-.33 1.62.58 1.54 1.07 1.3a3.46 3.46 0 002.08-2.55 2.29 2.29 0 00-.29-1.37zm-.59 1.7a2.78 2.78 0 01-.83.82c-.25.19-.56.23-.81.46a4.68 4.68 0 01.15-.48 6.51 6.51 0 011.53-2.16l.06.15a1.07 1.07 0 01-.1 1.21zm9.44-17.53a7.35 7.35 0 01-2 1.57c-.19.09-.16.52-.12.67s.23.4.41.31a7.86 7.86 0 002.15-1.69c.25-.31-.16-1.19-.44-.86zm4.26-1.89A5.14 5.14 0 00455 330q0-.45.06-.87c0-.51-.56-.92-.61-.17l-.28 4.86c-.06 1-.23 2 .08 2.47.07.11.29.26.42-.06v-.11a.73.73 0 000-.61c0-1 .08-2.14.16-3.26q.12 0 .18-.21a6.14 6.14 0 011.61-2.93c.38-.3-.03-1.2-.29-1zM457 330c-.06 0-.34-.12-.37.26v.19a.71.71 0 00.21.69c.05 0 .33.11.37-.26v-.19a.71.71 0 00-.21-.69zm6.79-12a73.7 73.7 0 00-4 13.48V328a44 44 0 01.35-7.56c.09-.59-.48-1.06-.59-.43a38.93 38.93 0 00-.36 6.85v7.74c0 .33.46 1 .6.3a79.2 79.2 0 014.57-16.24c.18-.54-.36-1.24-.57-.66z"/><path class="cls-36" d="M465.35 321.61l-2.67 2.47c-.37.35 0 1.22.29 1l2.67-2.47c.36-.36-.03-1.23-.29-1zm-.3 2.27a24.21 24.21 0 01-2.93 2.46c-.36.25 0 1.16.29 1a23.58 23.58 0 002.93-2.47c.37-.38-.04-1.24-.29-.99z"/><path class="cls-36" d="M471 317.49c.21-3.12-.89-5.84-2.54-3.61-.08 0-.16 0-.22.11-2.45 4.29-2.68 9.82-1 11.45.38.38.43-.69.17-.95-1.32-1.28-.62-5.79.86-8.88a.32.32 0 00.17-.16c2.29-4.37 2.12 2.17 1.47 5.08-.74 3.31-2.35 6.87-3.85 6.75-.46 0-.27 1 0 1 2.28.22 4.59-5.94 4.94-10.79z"/><path class="cls-40" d="M460.85 400.73s.25.93.24.93c-.71.18-5-.1-4.73.58.75 1.82 5.33 1.51 6 1.23l.15-.06.05-2.68zm9.47-5.39s.24.93.23.93c-.71.18-5-.1-4.73.58.75 1.82 5.33 1.5 6 1.23l.18-.08.06-2.68z"/><path d="M458.71 360.25c-.15 1.82-.14 10.58.46 19.45.67 9.82.79 20.71 1 21.63a2.64 2.64 0 002.8-.47s1.34-17.89 1.61-21c.31-3.58.93-15.87 1.86-15.87s2.2 20.38 2 16.49c0-.73 1 15.47 1.18 15.63.64.57 2.88.36 3-.39.87-4.74.41-18 .41-20.14s.05-15.95.05-15.95z" fill="url(#linear-gradient-82)"/><path class="cls-42" d="M456.1 357.58c.73.95 1.77 1.38 2.32 1s.39-1.53-.35-2.48-1.77-1.39-2.31-1-.39 1.53.34 2.48zm11.53-26.12h-4.68c0-.91.1-2.8.1-2.8l4.27-.09a10.51 10.51 0 01.33 2.78.25.25 0 01-.02.11z"/><path class="cls-40" d="M459.61 322.14a9.68 9.68 0 00.14 2.1c.3 1.67.13 3.55 1.75 4.44a7.44 7.44 0 007.37-.38c.92-.61.56-1.6.56-2.59 0-1.22.38-2.48.38-3.74 0-3.06-1.8-5.79-4.76-6-3.63-.15-5.31 3.03-5.44 6.17z"/><path d="M455.3 357.45l1.94-1.82c-.19 2.46.24 15.72-.15 17.38-.21.88 18.67-.93 18.82-2.64s-.61-16.6-.83-20.75c1.92-1.1 5.3-3.43 5-6-.39-3-4.88-9.69-6.27-11.7a2.4 2.4 0 00-1.14-.87c-3.36-1.21-11.71-.83-14 1.46-.1.11-8.46 10.8-8.77 13s5.4 11.94 5.4 11.94zm19.53-12.06c-.1-1.45-.21-2.91-.33-4.31l1.5 2.06zm-17.45 8.11l-2.38-6.16 2.71-4.06c-.06 3.26-.14 6.88-.33 10.22z" fill="url(#linear-gradient-83)"/><path class="cls-40" d="M187.07 242.35l9.86-6.62 10.09 5.43-9.59 7.02-10.36-5.83z"/><path class="cls-40" d="M193.9 245.73s4.5 1.63 8.33.37c.24-.23.86.5.41-3.67a24.19 24.19 0 00-8.94-1.16z"/><path class="cls-40" d="M197.52 251.79l-.5-1.03-.22-4.66-.22.23.21 4.43-.43 1.03h1.16z"/><path class="cls-36" d="M420.48 322.08c.7-1.39 2.08-3.61 1.53-4.79-.77-1.65-2.7.34-3.34 2.18a15.09 15.09 0 00-.6 5v.14q-1.1 2-2.26 4c-.24.43.65.78.93.3.44-.77.87-1.54 1.3-2.31 0 .65 0 1.3-.09 2-1.15 1.92-2.38 3.86-3.39 5.84-.53 1-1 2.15-.46 2.81 1.33 1.63 3.44-1.71 4.06-3.68a19.08 19.08 0 00.79-4.8l.44-.74c.15-.26-.11-.48-.4-.52v-2.63c.52-.88 1.01-1.88 1.49-2.8zm-3.79 12.68a5.66 5.66 0 01-1 1.61c-.65.3-.52-.86-.37-1.3a23.08 23.08 0 012-3.39l.45-.76a12.72 12.72 0 01-1.08 3.84zm2.43-12.58c.07-.67.33-3.24 1-3.7.25.15.51.29.77.43l-.36.81a14 14 0 01-.8 1.66l-.69 1.35c.05-.18.07-.37.08-.55zm6.52-6.18c.18-.51-.77-.74-.93-.29a34.44 34.44 0 00-2.13 10.92c0 2.27.19 4.36 2.14 4.39.69 0 .56-.72.07-.73-2 0-1.26-5-1-7.06a36.66 36.66 0 011.85-7.23z"/><path class="cls-36" d="M431.42 322.31a1.93 1.93 0 00-1.72-1.63c-.66-.09-.52.67-.06.74.75.11 1.29 1.61.59 2.79-.39.66-.73.66-1 .45a6.86 6.86 0 00-.05-.9c-.07-.59-.67-1.75-1.48-.86-.65.72.25 1.65.53 1.93a3.74 3.74 0 01-.31 1.5c-.59.68-.87-.65-.95-.9a16.38 16.38 0 01-.59-3c0-.38-1-.47-1 .09a10.63 10.63 0 001 4.12 1.36 1.36 0 001.84.61 2.41 2.41 0 00.88-1.81 1.68 1.68 0 001.27-.18c1.08-.59 1.22-2.12 1.05-2.95z"/><path class="cls-36" d="M430.94 313.15c-.18-.24-1.21-.16-.88.28a11.47 11.47 0 012.16 5.64c.06.49.21 7.21-.59 7.53-.63.25.07.83.42.69 1.44-.58 1.3-5.86 1.25-6.87a12.82 12.82 0 00-2.36-7.27zm8.41 1.23c-.94.73-3.42 1.81-4.38 2.38-.51.3.17.95.52.74 1-.61 3.56-1.72 4.55-2.49.38-.29-.32-.92-.69-.63zm1.22 1.5c-1 1.2-3.7 2.49-4.9 3-.48.19.17.88.52.74 1.25-.52 4-1.84 5.08-3.1.38-.45-.38-1-.7-.64zm7.26-12.81c-1.27-1.12-3.36 0-3.94 2.73a15.77 15.77 0 00.17 5.69c.25 1.72 1.29 6-1.3 7-.06-.33-.08-.68-.11-1s-1-.47-1 .09c.1 1 0 1.89 1 1.78a4.1 4.1 0 002.51-1.91c.84-1.57.14-4.05 0-5.28a26.08 26.08 0 01-.44-4.43c0-1 .87-5.54 2.4-4.19.23.19 1.18-.07.71-.48zm.17-6.43c-.82-.62-2 0-3 1.1-.21.23 0 .46.21.56a14 14 0 01-.72 1.58h-.24a6.18 6.18 0 00-1.66 0c-.91.22-2.19 1.17-1.7 2.33.35.82 1.44.85 2.33.37a5.32 5.32 0 001.91-2 3.09 3.09 0 002.49-1.23c.84-.97 1-2.21.38-2.71zm-4.24 4.36c-.24.28-.87 1-1.15 1-.52-1-.3-1.49.67-1.43h.8c-.08.17-.21.31-.32.43zm3.16-2.23a2.29 2.29 0 01-1.32 1c.31-.62.58-1.26.83-1.88a.28.28 0 000-.2c.72-.35 1.29-.07.49 1.1zm-6.14 24.62a10.25 10.25 0 01-2.67 1.4.34.34 0 00-.23.48.56.56 0 00.66.2 10.91 10.91 0 002.87-1.48c.5-.36-.28-.85-.63-.6zm6.84-4.85c-.62-.48-1.9-.2-2.47 1.12a.35.35 0 00.21.47c-.09.2-.19.4-.29.6l-.15-.07a2.32 2.32 0 00-2.7 1.8c-.35 1.19.12 2.66 1.06 2.59a1.75 1.75 0 001.24-1 16.73 16.73 0 00.92-1.79l.15.08A1.3 1.3 0 00447 322c1.13-1 1.37-2.87.62-3.46zm-4.1 5.31c-.19.4-.13.38-.23.31s-.14-.52-.16-.67a2.08 2.08 0 01.54-1.7c.46-.43.77-.44 1-.28-.37.78-.76 1.56-1.15 2.34zm3.15-2.88l-.8.57-.06-.09c.16-.36.33-.72.49-1.06a.35.35 0 00-.21-.48c.22-.47.75-1.07 1-.61a2.42 2.42 0 01-.42 1.7zm6.06-15.18c-.24.64-.61 1.47-1 2.4.36-.9.7-1.79 1-2.7.54-1.65 1.39-4 1.3-5.54s-1.31-2-2.23-.13a16.79 16.79 0 00-1.23 8.64c-.4 1-.83 1.89-1.29 2.83-.22.46.69.77.93.29s.43-.89.63-1.34v.07c-.92 2.37-1.6 4.81-.75 5.88s2.49 0 2.52-2a12.3 12.3 0 00-.71-3.58c.13-.32.26-.62.36-.88.45-1.21.91-2.42 1.37-3.64.21-.51-.73-.76-.9-.3zm-.77-3a21.92 21.92 0 01.63-2.37c.49 0 .57.34.25 1a15.82 15.82 0 01-1 3.74c-.09.27-.2.55-.29.82a20.67 20.67 0 01.45-3.19zm-.46 10a7 7 0 01.14 2c-.82.11-1.07-.27-.75-1.15a6.58 6.58 0 01.44-1.58c.06.26.12.51.17.77zm7.33-3.79a5.09 5.09 0 01-.89 1.09l-1.94-.28-.18-1.35a14.24 14.24 0 01.25-3.27 23 23 0 012.62-7.11c.24-.44-.66-.77-.92-.29-2.09 3.79-3.66 8.89-2.73 12.11.63 2.18 2.79 2 4.59-.44.37-.46-.51-.89-.8-.46z"/><path class="cls-36" d="M461.73 303a29.49 29.49 0 01-2.19 2.62 3 3 0 01-.55-.8c-.13-.31-1.12-.28-.87.27a3.25 3.25 0 00.84 1.13c-.51.53-1 1-1.59 1.5-.35.3.43.78.8.47.54-.47 1.07-1 1.58-1.49a3.6 3.6 0 001.81.22.38.38 0 00.38-.41c0-.26-.37-.35-.57-.33a2.35 2.35 0 01-1-.08 32.13 32.13 0 002.21-2.64c.31-.46-.58-.81-.85-.46z"/><path class="cls-36" d="M465.09 301.51a6.94 6.94 0 00-3.53-4.45c-.39-.2-1.13.28-.55.58 1.79.91 5.59 5.57 2.52 9.56-.36.46.5.85.8.46a6.65 6.65 0 00.76-6.15zm5.23-.63c-.58 1-1.58 1.95-2.4 1.86a.89.89 0 01-.46-.19c.87-1.31 1.83-3.2 1.3-4.06-.66-1-2.38.2-2.77 1.79a2.81 2.81 0 00.29 2.36l-.21.29c-.36.47.5.86.8.47l.12-.17c1.21.58 3.11 0 4.25-2.06.25-.43-.65-.78-.92-.29zm-3.32-.63c.09-.27.62-1.34.88-1.28s-.21 1.08-.29 1.27a10.51 10.51 0 01-.66 1.4 2.56 2.56 0 01.07-1.39zm-56.37 38.8l-1.62.88c-.07-.31-.2-.55-.6-.54s-.78.81-1 1.19a2 2 0 00-.1.26l-1.84 1c-.16-1.33.38-3.59-.7-4.08s-2.15 1.25-2.62 2.25a12.35 12.35 0 00-.86 3.27c-.05.29-.1.62-.15 1l-2.44 1.39a5 5 0 01-.05-.5c-.08-1.49.44-4.07-.62-5.05-1.94-1.77-4 4.92-5 8.86l-2.13 1.26c0-2.36-.11-4.7-.27-7 .06-.17.12-.34.19-.5.08.27.17.55.26.83s.25.71.6.86a.18.18 0 00.21 0 .38.38 0 00.09-.27.73.73 0 00-.34-.57c-.22-.59-.38-1.27-.57-1.87 0-.12-.41-.64-.58-.37l-.05.1c-.14-.13-.28-.17-.34 0s-.08.28-.12.41-.08.06-.07.16V342c-.06.2-.12.41-.17.61a18.94 18.94 0 00-.91 2.06c-.1.29.43 1 .61.65v-.07c.11-.19.21-.37.3-.56.11.08.22.08.28-.06.11 2 .17 3.94.17 5.94-.85.51-1.71 1-2.56 1.53-.33.2.17 1 .46.8l2.1-1.26c0 1.07 0 2.15-.08 3.23 0 .34.65.9.67.42.05-1.36.08-2.71.08-4.05l1.82-1.07c-.14.56-.23 1-.28 1.22s.56.95.64.59c.17-.79.36-1.58.57-2.36l4.59-2.68c.24 1.25.77 2.37 1.93 1.79s1.4-2.67 1.61-3.81l3.31-1.84c.19.95.57 1.71 1.42 1.85a.21.21 0 00.13-.05 18.78 18.78 0 001.1-3.25l1-.54a1.38 1.38 0 00.17.31c.33.45.69 0 .36-.4a.77.77 0 01-.07-.16c.63-.34 1.25-.69 1.89-1 .37-.16-.12-.94-.42-.79zM394 348.38c.41-1.38.87-2.75 1.42-4.1.25-.63.52-1.25.81-1.87q.5-2.31 1.23-.9c.79.7.47 2 .54 3.21 0 .3 0 .77.09 1.28zm6.39-1.45c-.78 1.26-1.25.6-1.49-.32l2-1.18a5.43 5.43 0 01-.51 1.5zm1.61-3.13a12.79 12.79 0 01.56-2.49c.44-1.18 1.86-4 2.21-1.68.11.7.12 1.63.21 2.51zm4.77-1.19c-.67 1.06-.7.64-.94.11l1.17-.64a2.12 2.12 0 01-.26.53zm61.54-53.74l-14.78.22c2-2.51 4-5 6.14-7.38a11.35 11.35 0 01.6 6c-.06.32.77.85.83.49a11.82 11.82 0 00-.78-6.62.76.76 0 00-.3-.29q3.48-4 7.14-7.84c.23-.24-.53-.88-.78-.63q-7.35 7.71-14 16.05a.21.21 0 000 .23h-.36c-.43 0 .21.74.52.73l16.25-.24c.47 0-.17-.73-.48-.72zM454 279.42c-.13 0-.16.08-.15.19v.65c0 .17.26.39.49.48.11.71 1.44 1.27 1.37.2a1.79 1.79 0 00-1.71-1.52z"/></g></g></svg>